<svg xmlns="http://www.w3.org/2000/svg" xmlns:xlink="http://www.w3.org/1999/xlink" width="827" height="579.183" viewBox="0 0 827 579.183">
  <defs>
    <linearGradient id="linear-gradient" x1="0.5" y1="0.906" x2="0.5" y2="0.062" gradientUnits="objectBoundingBox">
      <stop offset="0" stop-color="#fffff6"/>
      <stop offset="1" stop-color="#edde94"/>
    </linearGradient>
    <linearGradient id="linear-gradient-2" x1="0.5" y1="1.081" x2="0.503" y2="-0.056" gradientUnits="objectBoundingBox">
      <stop offset="0" stop-color="#c18500"/>
      <stop offset="1" stop-color="#d38b4c"/>
    </linearGradient>
    <linearGradient id="linear-gradient-3" x1="-0.038" y1="-0.549" x2="-0.038" y2="-1.534" gradientUnits="objectBoundingBox">
      <stop offset="0" stop-color="#bf774f"/>
      <stop offset="0.801" stop-color="#d59063"/>
    </linearGradient>
    <linearGradient id="linear-gradient-4" x1="0.413" y1="-0.215" x2="0.428" y2="1" gradientUnits="objectBoundingBox">
      <stop offset="0" stop-color="#eeb799"/>
      <stop offset="0.402" stop-color="#ecb596"/>
      <stop offset="0.618" stop-color="#e9af8e"/>
      <stop offset="0.789" stop-color="#e2a581"/>
      <stop offset="0.936" stop-color="#da976e"/>
      <stop offset="1" stop-color="#d59063"/>
    </linearGradient>
    <linearGradient id="linear-gradient-5" x1="-28.236" y1="-7.196" x2="-25.446" y2="-7.821" gradientUnits="objectBoundingBox">
      <stop offset="0" stop-color="#b5b237"/>
      <stop offset="0.284" stop-color="#4ab248"/>
      <stop offset="0.461" stop-color="#42b148"/>
      <stop offset="0.816" stop-color="#b6c948"/>
      <stop offset="1" stop-color="#afc147"/>
    </linearGradient>
    <linearGradient id="linear-gradient-6" x1="-29.592" y1="-69.192" x2="-26.727" y2="-70.872" gradientUnits="objectBoundingBox">
      <stop offset="0" stop-color="#989526"/>
      <stop offset="0.284" stop-color="#4ab248"/>
      <stop offset="0.461" stop-color="#42b148"/>
      <stop offset="0.816" stop-color="#b6c948"/>
      <stop offset="1" stop-color="#afc147"/>
    </linearGradient>
    <linearGradient id="linear-gradient-7" x1="8.005" y1="82.215" x2="7.123" y2="80.708" xlink:href="#linear-gradient-3"/>
    <linearGradient id="linear-gradient-8" x1="2.71" y1="-3.751" x2="2.041" y2="-5.029" xlink:href="#linear-gradient-3"/>
    <linearGradient id="linear-gradient-9" x1="0.067" y1="0.275" x2="1.073" y2="0.709" gradientUnits="objectBoundingBox">
      <stop offset="0" stop-color="#5c941e"/>
      <stop offset="1" stop-color="#075647"/>
    </linearGradient>
    <linearGradient id="linear-gradient-10" x1="0" y1="0.5" x2="1" y2="0.5" xlink:href="#linear-gradient-9"/>
    <linearGradient id="linear-gradient-11" y1="0.5" x2="1" y2="0.5" gradientUnits="objectBoundingBox">
      <stop offset="0" stop-color="#b1941e"/>
      <stop offset="1" stop-color="#6e5647"/>
    </linearGradient>
    <linearGradient id="linear-gradient-12" x1="0.257" y1="0.435" x2="0.713" y2="0.557" xlink:href="#linear-gradient-9"/>
    <linearGradient id="linear-gradient-13" x1="-4.333" y1="-24.036" x2="-3.605" y2="-24.036" gradientUnits="objectBoundingBox">
      <stop offset="0" stop-color="#8ac43f"/>
      <stop offset="1" stop-color="#d7de21"/>
    </linearGradient>
    <linearGradient id="linear-gradient-14" x1="2.283" y1="7.399" x2="3.46" y2="7.399" xlink:href="#linear-gradient-13"/>
    <linearGradient id="linear-gradient-15" x1="-5.233" y1="-23.13" x2="-4.506" y2="-23.13" xlink:href="#linear-gradient-13"/>
  </defs>
  <g id="banner-illustration" transform="translate(-7968.659 -1037.094)">
    <path id="Path_47" data-name="Path 47" d="M8715.987,1314.406c-50.05-56.918-61.324-285.249-227.735-277.1s-132.631,264.875-205.523,264.06-71.408-108.395-130.749-78.24-34.121,167.619-114.229,190.167c-43.7,12.3-61.353,71.579-68.375,122.925-5.763,42.157,24,80.059,62.8,80.059h629.366c42.728,0,83.313-21.406,109.409-58.578C8804.628,1509.739,8818.211,1430.658,8715.987,1314.406Z" transform="translate(0 0)" fill="url(#linear-gradient)"/>
    <path id="table_top" data-name="table top" d="M8496.443,1613l76.767-58.053h331.522l76.521,58.161Z" transform="translate(-234.714 -230.296)" fill="url(#linear-gradient-2)"/>
    <path id="Path_49" data-name="Path 49" d="M8676.219,1596.325h86.024l14.824-35.937H8724.3Z" transform="translate(-314.664 -232.717)" fill="#e2e2e2"/>
    <path id="pants" d="M8881.883,1852.29h-19.09c-2.022-18.98-16.286-120.724-24.481-142.625s-18.079-20.551-25.156-19.541-21.786,24.483-23.137,39.3-10.105,122.862-10.105,122.862h-19.092c-34.138-109.158-36.538-133.418-35.64-149.288s20.963-36.91,20.963-36.91,135.818-11.833,150.188,3.365,18.421,36.537,18.421,36.537C8920.145,1740.283,8881.883,1852.29,8881.883,1852.29Z" transform="translate(-336.374 -277.774)" fill="#c45b5b"/>
    <path id="pants_shadow" data-name="pants shadow" d="M8908.73,1853.168h-12.145c-2.021-18.98-16.286-120.724-24.48-142.624s-18.08-20.551-25.155-19.54-21.789,24.483-23.14,39.3-10.1,122.862-10.1,122.862h-4.677s2.249-36.243-3.292-67.689-7.634-81.3,1.871-90.139,18.347-9.735,27.48-19.469,36.834-17.969,44.617-6.885,8.54,38.481,21.868,42.524,4.342,9.584,1.792,19.468-.15,64.685-.3,76.068-.3,43.118,3.292,44.617A10.676,10.676,0,0,1,8908.73,1853.168Z" transform="translate(-370.169 -278.653)" fill="#b94e4e"/>
    <rect id="table_base" data-name="table base" width="490.097" height="11.23" rx="5.483" transform="translate(8258.685 1382.7)" fill="#a5762b"/>
    <path id="table_left_leg" data-name="table left leg" d="M8598.368,1679.714v189.446c0,.658-1.363,1.192-3.044,1.192h-5.142c-1.682,0-3.045-.534-3.045-1.192V1679.714Z" transform="translate(-275.048 -285.784)" fill="#a5762b"/>
    <path id="table_right_leg" data-name="table right leg" d="M9286.008,1679.714v189.446c0,.658-1.362,1.192-3.043,1.192h-5.142c-1.681,0-3.045-.534-3.045-1.192V1679.714Z" transform="translate(-580.852 -285.784)" fill="#a5762b"/>
    <path id="Path_54" data-name="Path 54" d="M8856.957,1291.615s-3.213,27.033-5.238,33.13,30.941,19.092,34.328,14.928,10.225-13.543,10.225-13.543-3.094-28.686-2.6-38.513S8859.821,1277.008,8856.957,1291.615Z" transform="translate(-392.671 -108.208)" fill="url(#linear-gradient-3)"/>
    <path id="Path_55" data-name="Path 55" d="M8919.639,1385.079c-2.5,4.642-1.85,34.372-34.628,29.869s-50.682-6.414-63.029-15.343-24.271-25.921-20.944-28.37,10.016-2.01,10.434-2.143,11.609-5,14.79-7.446,17.627,15.731,20.92,14.576,9.684-7.469,10.594-6.93c.835.483,3.677.561,5.786,1.4s8.352,9.506,8.352,9.506,1.083-1.866,2.666-4.448c3.58-5.825,9.729-15.315,11.832-15.376,2.178-.067,6.636,1.238,11.718,2.7l.1.033c.008,0,.02,0,.023.006.133.039.267.078.405.111,1.844.538,3.766,1.088,5.681,1.6C8911.742,1366.8,8922.137,1380.442,8919.639,1385.079Z" transform="translate(-369.921 -143.767)" fill="#f7defc"/>
    <path id="Path_56" data-name="Path 56" d="M8820.868,1214.891s-4.521,16.2,26.491,32.3c0,0,13.211,9.026,27.671,1.322s28.744-36.853,28.744-36.853-4.137-35.8-12.764-37.188-13.574,3.249-15.94-5.259-12.7-15-24.648-8.073S8820.868,1214.891,8820.868,1214.891Z" transform="translate(-378.889 -53.866)" fill="url(#linear-gradient-4)"/>
    <path id="Path_57" data-name="Path 57" d="M8857.286,1161.358s-3.254,20-27.748,24c0,0-11.061,13.553-11.11,25.833,0,0-.4,7.331.662,11.6a37.37,37.37,0,0,1-16.415-32.336c.457-22.382,15.809-48.054,33.11-51.894s27.924.42,36.535,7.785c0,0,15.414-3.205,24.788,25.667s-11.623,48.439-11.623,48.439,3.439-14.457,3.031-23.752c0,0-.74,8.147-1.809,10.347,0,0-6.588-.184-7.3-16.773,0,0-.323-10.54,1.63-16.341,0,0-4.893,15.888-19.913,21.685,0,0,10.8-22.92,9.683-30.506,0,0-7.226,16.59-18.939,21.855a36.7,36.7,0,0,1-4.9,1.323S8858.113,1178.873,8857.286,1161.358Z" transform="translate(-370.897 -44.48)" fill="#2b2b2b"/>
    <path id="Path_58" data-name="Path 58" d="M8845.613,1371.413s-10.387-5.508-4.8-16.838,7.907-5.923,12.729-1.123,16.921,6.177,18.567,8.972.9,5.041-4.991,11.48-2.54,9.039-4.434,8.64S8845.613,1371.413,8845.613,1371.413Z" transform="translate(-387.127 -138.204)" fill="#fdf3ff"/>
    <path id="Path_59" data-name="Path 59" d="M8661.552,1582.86c0,3.8-5.121,9.2-18.2,6.888-9.9-1.751-15.826-3.914-18.2-6.888-11.89-14.907,2.265-27.834,12.317-27.834S8661.552,1579.056,8661.552,1582.86Z" transform="translate(-289.938 -230.333)" fill="#00001e" opacity="0.19"/>
    <path id="shirt" d="M8902.777,1461.232c-2.114-3.915-4.794-9.929-7.689-16.925-7.252-17.519-15.905-41.2-20.606-53.452-6.592-17.147-44.736-28.542-46.494-28.675a1.71,1.71,0,0,0-.724.078c-.984.333-.811,1.594-.31,1.655.594.078,1.408.516,2.081,2.61.866,2.687-9.7,20.812-20.591,25.221a48.967,48.967,0,0,1-7.173,2.316c-8.912,2.132-19.1,1.71-34.984-2.316-20.257-5.136-25.281-21.995-25.453-22.472s-.521-.278-.521-.278a19.219,19.219,0,0,1-4.944,1.116c-24.1,2.243-34.063,17.342-44.4,32.5-6.662,9.773-26.119,32.3-38.912,52.574v.005c-7.06,11.167-12.088,21.656-11.851,28.953.673,20.551,45.374,14.826,45.374,14.826a34,34,0,0,0,16.524-9.162s-7.167-5.253-8.512-9.856c-.262-.894.37-1.838,1.559-2.771,3.6-2.826,12.272-5.592,16.705-6.88,1.643-.483,2.7-.755,2.7-.755h191.589Z" transform="translate(-298.647 -144.568)" fill="#605ea5"/>
    <path id="Path_61" data-name="Path 61" d="M8823.294,1506.875h-57.055s-1.057.272-2.7.755c-.232-.239-.478-.466-.729-.683a10.439,10.439,0,0,0-3.257-1.96c-.757-.277-2.684-.194-3.072-.938-.545-1.033,2.271-5.364,2.688-6.369,2.282-5.575,4.075-11.594,3.293-17.675-.289-2.238-.928-4.442-.873-6.7a15.2,15.2,0,0,1,3.927-9.179c1.372-1.621,2.953-3.06,4.182-4.792,2.691-3.8,3.4-8.607,4.03-13.221,1.915,1.272,2.547,3.8,2.531,6.1s-.508,4.6-.193,6.874c.255,1.8,1.376,3.782,3.188,3.876,1.4.067,2.558-1,3.862-1.5s3.332.206,3.038,1.571c-1.454,2.16-4.086,3.249-5.742,5.259a12.648,12.648,0,0,0-2.331,6.647c-.513,4.337-.14,9.09,2.625,12.477,2.646,3.243,6.9,4.581,10.885,5.869,9.309,3.021,18.4,6.636,27.487,10.25a9.7,9.7,0,0,1,2.914,1.566A5.165,5.165,0,0,1,8823.294,1506.875Z" transform="translate(-350.328 -181.899)" fill="#57579b"/>
    <rect id="Rectangle_516" data-name="Rectangle 516" width="4.567" height="29.226" rx="2.284" transform="matrix(0.866, 0.5, -0.5, 0.866, 8438.138, 1295.773)" fill="url(#linear-gradient-5)"/>
    <path id="Rectangle_517" data-name="Rectangle 517" d="M2.284,0h0A2.284,2.284,0,0,1,4.567,2.284V11.17a0,0,0,0,1,0,0H0a0,0,0,0,1,0,0V2.284A2.284,2.284,0,0,1,2.284,0Z" transform="translate(8439.892 1292.735) rotate(30)" fill="url(#linear-gradient-6)"/>
    <rect id="Rectangle_518" data-name="Rectangle 518" width="15.985" height="9.361" rx="4.681" transform="matrix(0.999, -0.04, 0.04, 0.999, 8424.747, 1320.291)" fill="url(#linear-gradient-7)"/>
    <rect id="Rectangle_519" data-name="Rectangle 519" width="26.204" height="8.803" rx="4.402" transform="translate(8414.787 1308.513) rotate(49.109)" fill="url(#linear-gradient-8)"/>
    <rect id="Rectangle_520" data-name="Rectangle 520" width="26.204" height="8.803" rx="4.402" transform="translate(8407.263 1313.052) rotate(49.109)" fill="#d59063"/>
    <path id="Path_62" data-name="Path 62" d="M8702.109,1564.3a34,34,0,0,1-16.524,9.162s-44.7,5.725-45.374-14.826c-.237-7.3,4.791-17.786,11.851-28.953a18.009,18.009,0,0,1-.388,5.919c-.407,1.7-1.056,3.337-1.469,5.042a18.427,18.427,0,0,0,2.154,13.51c2.719,4.559,5.37,5.83,10.607,3.57,2.628-1.133,5.042-2.771,7.775-3.6,3.009-.916,6.267-.811,9.25-1.81,2.274-.761,4.348-2.149,6.705-2.577a12.765,12.765,0,0,1,8.459,1.938c-1.188.933-1.82,1.877-1.559,2.771C8694.942,1559.05,8702.109,1564.3,8702.109,1564.3Z" transform="translate(-298.647 -219.064)" fill="#57579b"/>
    <rect id="Rectangle_521" data-name="Rectangle 521" width="23.641" height="8.803" rx="4.402" transform="translate(8401.583 1319.665) rotate(49.109)" fill="#d59063"/>
    <rect id="Rectangle_522" data-name="Rectangle 522" width="21.329" height="8.803" rx="4.402" transform="translate(8395.204 1325.19) rotate(49.109)" fill="#d59063"/>
    <ellipse id="Ellipse_26" data-name="Ellipse 26" cx="18.201" cy="6.888" rx="18.201" ry="6.888" transform="translate(8604.38 1343.56)" fill="#00001e" opacity="0.19"/>
    <ellipse id="Ellipse_27" data-name="Ellipse 27" cx="22.405" cy="6.888" rx="22.405" ry="6.888" transform="translate(8646.605 1342.256)" fill="#00001e" opacity="0.19"/>
    <path id="Path_63" data-name="Path 63" d="M9162.853,1484.333a16.1,16.1,0,0,0-2.252-6.748l-1.634-2.5s.253-1.37-.209-1.925-.75-.839-.75-.839l-1.217-13.332-.765-9.883s.746-.115.676-.585-.94-2.409-.9-2.669a1.508,1.508,0,0,1,.521-.84c.19-.08.6.115.738-.17a4.029,4.029,0,0,0-.764-2.394,21.294,21.294,0,0,0-9.4,0,4.072,4.072,0,0,0-.766,2.394c.138.285.548.09.741.17a1.5,1.5,0,0,1,.52.84c.039.26-.828,2.2-.9,2.669s.674.585.674.585l-.765,9.883-1.213,13.332s-.286.285-.75.839-.211,1.925-.211,1.925l-1.634,2.5a16.112,16.112,0,0,0-2.25,6.748s.089,11.292.15,12.507.09,17.635.029,23.814.209,7.513,1.229,8.008,9.842.516,9.842.516,8.821-.021,9.841-.516,1.291-1.829,1.229-8.008-.029-22.6.028-23.814S9162.853,1484.333,9162.853,1484.333Z" transform="translate(-521.07 -180.035)" fill="#ff9011"/>
    <path id="Path_64" data-name="Path 64" d="M9214.788,1542.714l6.789,30.108s.946,2.81,11.928,3.095c0,0,10.158-.01,11.93-3.095l6.789-30.108s.623-2.865-18.719-3.095C9233.5,1539.62,9216.21,1539.625,9214.788,1542.714Z" transform="translate(-554.175 -223.481)" fill="url(#linear-gradient-9)"/>
    <path id="Path_65" data-name="Path 65" d="M9252.228,1542.715c0,.761-1.655,1.455-4.394,1.988a93.42,93.42,0,0,1-28.65,0c-2.746-.533-4.394-1.227-4.394-1.988,0-1.71,8.378-3.1,18.72-3.1S9252.228,1541.005,9252.228,1542.715Z" transform="translate(-554.175 -223.48)" fill="url(#linear-gradient-10)"/>
    <path id="Path_66" data-name="Path 66" d="M9251.35,1547.763a93.386,93.386,0,0,1-28.651,0,81.709,81.709,0,0,1,28.651,0Z" transform="translate(-557.691 -226.54)" fill="url(#linear-gradient-11)"/>
    <path id="Path_67" data-name="Path 67" d="M9248.5,1498.3s5.314-39.1,15.72-51.3a32.261,32.261,0,0,1,24.259-11.53s.048.006.053.075a.087.087,0,0,1-.06.09,37.683,37.683,0,0,0-23.427,11.758s-4.81,5.962-14.674,50.91Z" transform="translate(-569.166 -177.162)" fill="url(#linear-gradient-12)"/>
    <path id="Path_68" data-name="Path 68" d="M9271.409,1470.74s5.271-4.7,9.428-4.036,9.164,2.547,10.271,2.567c0,0-3.482-.038-4.182-.145a11.549,11.549,0,0,1,5.34,2.507c2.372,2.076,4.969,3.985,6.233,4.436,0,0-1.6-.2-2.34-.4,0,0,7.148,5.733,10.007,6.162,0,0-5.693-.814-9.137-.252a25.8,25.8,0,0,0-5.668,1.539,4.794,4.794,0,0,1,2.1.68,16.4,16.4,0,0,0-5.778.166c-2.214.691-4.687,1.585-5.721.74a3.91,3.91,0,0,1,.871,1.507c.143.723,1.345,1.405,1.345,1.405a8.427,8.427,0,0,1-4.329-2.936c-2.043-2.47-3.815-1.115-6.246-4.346S9269.228,1472.236,9271.409,1470.74Z" transform="translate(-578.933 -191.026)" fill="url(#linear-gradient-13)"/>
    <path id="Path_69" data-name="Path 69" d="M9284.568,1413.929s-7.051-.4-9.519-3.813-4.679-8.281-5.447-9.079c0,0,2.437,2.49,2.854,3.061a11.527,11.527,0,0,1-2-5.55c-.209-3.145-.7-6.331-1.27-7.543,0,0,.981,1.271,1.367,1.938,0,0-1-9.108-2.718-11.433,0,0,3.451,4.6,6.284,6.638a25.691,25.691,0,0,0,5.095,2.918,4.785,4.785,0,0,1-1-1.965,16.422,16.422,0,0,0,4.2,3.967c2.056,1.077,4.437,2.194,4.568,3.522a3.957,3.957,0,0,1,.451-1.681c.41-.612.041-1.945.041-1.945a8.417,8.417,0,0,1,.987,5.139c-.3,3.191,1.908,3.486,1.342,7.488S9287.168,1414.414,9284.568,1413.929Z" transform="translate(-577.764 -153.168)" fill="url(#linear-gradient-14)"/>
    <path id="Path_70" data-name="Path 70" d="M9319.328,1429.077s5.271-4.7,9.427-4.036,9.163,2.548,10.271,2.568c0,0-3.482-.038-4.185-.145a11.556,11.556,0,0,1,5.344,2.507c2.37,2.076,4.967,3.985,6.23,4.436,0,0-1.594-.2-2.337-.4,0,0,7.147,5.733,10,6.162,0,0-5.692-.814-9.134-.252a25.745,25.745,0,0,0-5.67,1.539,4.784,4.784,0,0,1,2.1.68,16.379,16.379,0,0,0-5.775.167c-2.216.691-4.687,1.585-5.722.74a3.933,3.933,0,0,1,.871,1.507c.144.723,1.346,1.405,1.346,1.405a8.438,8.438,0,0,1-4.333-2.937c-2.04-2.469-3.811-1.115-6.241-4.345S9317.145,1430.573,9319.328,1429.077Z" transform="translate(-600.243 -172.498)" fill="url(#linear-gradient-15)"/>
    <path id="Path_71" data-name="Path 71" d="M9042.107,1508.784h-90.144a1.394,1.394,0,0,1-1.008-2.352l.024-.024a77.311,77.311,0,0,0,17.207-29.013,71.948,71.948,0,0,0,3.482-19.041c.106-2.51.312-5.447,2.416-6.819a7.629,7.629,0,0,1,3.554-.9,24.987,24.987,0,0,1,8.263.233c2.682.689,5.243,2.482,6.091,5.114.585,1.816.3,3.781.461,5.686a24.537,24.537,0,0,0,2.659,8.052c2.534,5.447,5.371,11.228,10.58,14.21,5.014,2.876,11.171,2.549,16.935,2.116,3.095-.235,6.007,1.136,8.788-.1.7-.314,1.974-1.724,2.273-1.012,2.662,6.368,5.109,11.825,7.08,15.479.021.042.042.085.063.13l2.563,6.331A1.389,1.389,0,0,1,9042.107,1508.784Z" transform="translate(-436.673 -183.807)" fill="#57579b"/>
    <path id="Path_72" data-name="Path 72" d="M8937.441,1390.943a49,49,0,0,1-7.175,2.315c1.567-5.391,1.728-11.267,2-16.941.011-.189.017-.378.028-.566,3.582-5.825,9.729-15.315,11.833-15.376,2.176-.067,6.635,1.238,11.715,2.7a.394.394,0,0,0,.1.033.032.032,0,0,1,.022.006,1.5,1.5,0,0,1,.405.111c.522.239,1.133.866,1.655,2.493C8958.9,1368.409,8948.33,1386.533,8937.441,1390.943Z" transform="translate(-427.643 -143.767)" fill="#e6cced"/>
    <path id="Path_73" data-name="Path 73" d="M8899.734,1362.342a53.208,53.208,0,0,0,7.732,13.33c5.136,6.726,5.189,2.117,7.7.943,3-1.4,8.586-7.237,10.631-10.781s9.369-10.664,9.579-12.217-15.385-9.809-17.081-9.759-7.488,10.8-11.308,12.7C8901.253,1359.406,8899.762,1360.195,8899.734,1362.342Z" transform="translate(-414.065 -136.422)" fill="#fdf3ff"/>
    <g id="socks">
      <path id="right_socks" data-name="right socks" d="M8973.117,2004.926l.941,11.9h16.4l1.754-11.9Z" transform="translate(-446.699 -430.411)" fill="#fdf3ff"/>
      <path id="socks-2" data-name="socks" d="M8808.659,2004.926l-.941,11.9h-16.4l-1.753-11.9Z" transform="translate(-365.072 -430.411)" fill="#fdf3ff"/>
    </g>
    <path id="Path_76" data-name="Path 76" d="M8779.252,2026.356s-13.091,9.509-15.737,12.254-.548,3.743,7.288,3.594,25.567,1.547,25.786-1.1-.942-14.749-.942-14.749Z" transform="translate(-353.002 -439.941)" fill="#3a3a3a"/>
    <path id="Path_77" data-name="Path 77" d="M8990.482,2026.356s13.091,9.509,15.737,12.254.549,3.743-7.288,3.594-25.567,1.547-25.787-1.1.942-14.749.942-14.749Z" transform="translate(-446.699 -439.941)" fill="#3a3a3a"/>
  </g>
</svg>
