<svg xmlns="http://www.w3.org/2000/svg" width="743.457" height="403.492" viewBox="0 0 743.457 403.492">
  <g id="Cheers_to_What_s_Ahead" data-name="Cheers to What s Ahead" transform="translate(-8413.799 -1711.711)" style="isolation: isolate">
    <g id="Group_30" data-name="Group 30" style="isolation: isolate">
      <path id="letter_c" data-name="Path 263" d="M8519.941,1715.486l.961,35.8h-1.842q-.882-2.32-1.361-3.523-2.8-7.687-4.564-11.451a40.379,40.379,0,0,0-9.049-12.332,29.644,29.644,0,0,0-9.289-6.166,28.9,28.9,0,0,0-10.811-1.922,30.305,30.305,0,0,0-15.7,3.924,39.433,39.433,0,0,0-10.891,9.889,57.359,57.359,0,0,0-8.248,14.7,71.791,71.791,0,0,0-4.564,26.425,76.513,76.513,0,0,0,3.123,22.663,45.452,45.452,0,0,0,9.129,16.9q11.051,12.654,29.309,12.652a40.817,40.817,0,0,0,16.416-3.163,25.9,25.9,0,0,0,11.291-8.928q4.644-6.646,6.727-17.938l1.842.32q-1.523,12.654-6.887,20.1a32.228,32.228,0,0,1-14.135,10.891,53.792,53.792,0,0,1-20.859,3.763,67.881,67.881,0,0,1-21.141-3.283,46.471,46.471,0,0,1-25.145-19.1q-9.05-13.812-9.049-32.952a68.081,68.081,0,0,1,5.285-27.026,49.933,49.933,0,0,1,14.734-19.9,57.063,57.063,0,0,1,17.416-9.169,60.5,60.5,0,0,1,40.8.28l6.566,2.162a9.8,9.8,0,0,0,3.363.721,3.958,3.958,0,0,0,3.283-1.682,16.4,16.4,0,0,0,1.361-2.643Z" fill="#070707"/>
      <path id="letter_h" data-name="Path 264" d="M8568.01,1712.844v54.842a47.1,47.1,0,0,1,4.965-5.359,21.882,21.882,0,0,1,5.205-3.361,29.7,29.7,0,0,1,13.293-2.88q9.448,0,15.615,3.759a14.743,14.743,0,0,1,6.046,6.839q1.641,4.038,1.642,12.117v23.355l.08,6.08a35.422,35.422,0,0,0,.641,7.958,8.31,8.31,0,0,0,2.482,4.2q2.241,2.16,8.248,3.279v1.682h-35.367v-1.682a24.127,24.127,0,0,0,6.031-1.358,8.333,8.333,0,0,0,3.236-2.721,12.762,12.762,0,0,0,2-5.438,68.5,68.5,0,0,0,.559-10.159v-25.351a37.561,37.561,0,0,0-.879-9.118,14.792,14.792,0,0,0-2.956-5.839q-4.074-4.719-11.5-4.719-19.336,0-19.334,30.553v12.8l.08,5.918a35.561,35.561,0,0,0,.639,7.958,8.322,8.322,0,0,0,2.477,4.2q2.238,2.16,8.229,3.279v1.682h-35.368v-1.682a20.744,20.744,0,0,0,6.887-1.8,8.241,8.241,0,0,0,3.363-3.959,17.39,17.39,0,0,0,1.241-5.556q.36-3.719.36-10.754v-62.768a112.239,112.239,0,0,0-.4-11.514,12.574,12.574,0,0,0-1.762-5.436,8.165,8.165,0,0,0-3.283-3.2,14.966,14.966,0,0,0-5.525-1.2v-1.761Z" fill="#070707"/>
      <path id="letter_e" data-name="Path 265" d="M8661.563,1781.791q-.322,3.924-.321,5.686a46.219,46.219,0,0,0,2.035,13.613,33.038,33.038,0,0,0,5.546,11.051,25.885,25.885,0,0,0,20.032,9.609,23.241,23.241,0,0,0,8.18-1.441,17.561,17.561,0,0,0,6.424-4q2.874-2.8,4.949-8.969l1.682.561q-2.083,9.369-8.929,14.133t-18.218,4.765a41.512,41.512,0,0,1-16.9-3.123,30,30,0,0,1-11.932-9.609q-6.807-9.049-6.807-22.262,0-18.018,12.893-28.268a33.427,33.427,0,0,1,21.381-7.447,30.364,30.364,0,0,1,11.852,2.282,24.674,24.674,0,0,1,9.209,6.607q5.845,6.726,5.846,16.816Zm34.913-3.123q-.56-8.007-2.949-12.332a16.761,16.761,0,0,0-5.739-6.206,14.014,14.014,0,0,0-7.652-2.282q-6.857,0-12,5.926a26.364,26.364,0,0,0-6.1,14.894Z" fill="#070707"/>
      <path id="letter_e" data-name="Path 266" d="M8750.07,1781.791q-.319,3.924-.32,5.686a46.251,46.251,0,0,0,2.035,13.613,33.021,33.021,0,0,0,5.547,11.051,25.881,25.881,0,0,0,20.031,9.609,23.241,23.241,0,0,0,8.18-1.441,17.565,17.565,0,0,0,6.425-4q2.873-2.8,4.948-8.969l1.682.561q-2.083,9.369-8.928,14.133t-18.219,4.765a41.512,41.512,0,0,1-16.9-3.123,30.011,30.011,0,0,1-11.932-9.609q-6.806-9.049-6.807-22.262,0-18.018,12.893-28.268a33.427,33.427,0,0,1,21.381-7.447,30.361,30.361,0,0,1,11.852,2.282,24.667,24.667,0,0,1,9.209,6.607q5.845,6.726,5.846,16.816Zm34.914-3.123q-.56-8.007-2.949-12.332a16.751,16.751,0,0,0-5.738-6.206,14.019,14.019,0,0,0-7.652-2.282q-6.857,0-12,5.926a26.378,26.378,0,0,0-6.1,14.894Z" fill="#070707"/>
      <path id="letter_r" data-name="Path 267" d="M8844.5,1768.408a23.283,23.283,0,0,1,6.486-7.6,25.494,25.494,0,0,1,15.135-4.721q5.206,0,7.928,2.321a6.434,6.434,0,0,1,2.482,5.121,4.914,4.914,0,0,1-1.48,3.68,5.229,5.229,0,0,1-3.8,1.441,6.143,6.143,0,0,1-4.725-2.241l-2.482-2.718a9.309,9.309,0,0,0-6.967-3.12q-5.446,0-8.488,7.039t-3.043,19.593v14.956l.08,6.078a35.4,35.4,0,0,0,.641,7.958,8.317,8.317,0,0,0,2.482,4.2q2.241,2.16,8.248,3.279v1.682H8821.6v-1.682a20.791,20.791,0,0,0,6.887-1.792,8.216,8.216,0,0,0,3.363-3.945,17.241,17.241,0,0,0,1.242-5.536q.36-3.705.359-10.717V1782a110.978,110.978,0,0,0-.4-11.513,12.427,12.427,0,0,0-1.762-5.378,8.469,8.469,0,0,0-3.283-3.226,14.426,14.426,0,0,0-5.525-1.235v-1.682l20.645-2.883A67.027,67.027,0,0,1,8844.5,1768.408Z" fill="#070707"/>
      <path id="letter_s" data-name="Path 268" d="M8898.739,1825.354v-22.662h1.282a44.414,44.414,0,0,0,5.591,13.293q6.151,9.049,14.379,9.048a13.217,13.217,0,0,0,8.707-3.043q3.995-3.363,3.994-9.529a14.091,14.091,0,0,0-2.876-8.808,18.69,18.69,0,0,0-4.035-3.684,90.494,90.494,0,0,0-8.187-4.725q-10.066-5.364-13.42-8.968a16.827,16.827,0,0,1-4.794-11.852,17.673,17.673,0,0,1,4.8-12.412q5.525-5.925,14.654-5.926a19.9,19.9,0,0,1,7.607,1.442l2.723,1.2a6.535,6.535,0,0,0,2.242.48q1.521,0,2.883-2.4h1.6l.88,18.178h-1.682a36.733,36.733,0,0,0-1.877-6.166,17.826,17.826,0,0,0-2.834-4.485,18.485,18.485,0,0,0-5.749-4.765,13.823,13.823,0,0,0-6.468-1.721,10.245,10.245,0,0,0-7.626,3.243,10.991,10.991,0,0,0-3.153,7.968,10.344,10.344,0,0,0,2.837,7.087,25.776,25.776,0,0,0,8.748,5.805l8.469,3.844q7.589,3.444,11.346,8.568a19.913,19.913,0,0,1,3.755,12.092,19.039,19.039,0,0,1-5.445,13.934q-6.246,6.406-16.016,6.406a29.9,29.9,0,0,1-10.73-2.082q-3.524-1.36-4.244-1.561a7.062,7.062,0,0,0-1.842-.2,4.649,4.649,0,0,0-4.243,2.4Z" fill="#070707"/>
      <path id="letter_comma" data-name="Path 269" d="M9042.123,1757.287h20.34v3.043h-20.34v46.606q0,8.407,2.873,12.011a10.16,10.16,0,0,0,3.99,3.123,12.781,12.781,0,0,0,5.348,1.122,11.2,11.2,0,0,0,5.988-1.482,20.7,20.7,0,0,0,5.268-5.4l1.2,1.041a16.616,16.616,0,0,1-7.408,7.127,27.053,27.053,0,0,1-11.891,2.322q-9.45,0-13.773-3.684a8.882,8.882,0,0,1-3.043-4.6,43.105,43.105,0,0,1-.721-9.649V1760.33h-8.568v-1.281a22.522,22.522,0,0,0,9.616-6.486,32.1,32.1,0,0,0,4.271-5.886,41.75,41.75,0,0,0,3.064-7.567l.806-2.643h2.983Z" fill="#070707"/>
      <path id="letter_w" data-name="Path 270" d="M9081.223,1791.561q0-12.974,9.609-23.143,11.691-12.331,27.947-12.332t27.867,12.332q9.609,10.251,9.609,23.223a32.924,32.924,0,0,1-9.129,22.822q-11.212,12.333-28.348,12.332t-28.428-12.332a34.868,34.868,0,0,1-6.767-10.73A32.59,32.59,0,0,1,9081.223,1791.561Zm14.574-.92q0,13.919,6.246,23.595,7.046,10.8,17.217,10.8a16.4,16.4,0,0,0,8.408-2.4,22.171,22.171,0,0,0,7.047-6.719,37.489,37.489,0,0,0,5.045-11.237,47.739,47.739,0,0,0,1.922-13.078,45.089,45.089,0,0,0-2.042-13.237,39.235,39.235,0,0,0-5.485-11.479q-6.567-9.036-16.1-9.037-9.05,0-15.615,9.517Q9095.8,1776.886,9095.8,1790.641Z" fill="#070707"/>
    </g>
    <g id="Group_31" data-name="Group 31" style="isolation: isolate">
      <path id="Path_271" data-name="Path 271" d="M8519.941,1715.486l.961,35.8h-1.842q-.882-2.32-1.361-3.523-2.8-7.687-4.564-11.451a40.379,40.379,0,0,0-9.049-12.332,29.644,29.644,0,0,0-9.289-6.166,28.9,28.9,0,0,0-10.811-1.922,30.305,30.305,0,0,0-15.7,3.924,39.433,39.433,0,0,0-10.891,9.889,57.359,57.359,0,0,0-8.248,14.7,71.791,71.791,0,0,0-4.564,26.425,76.513,76.513,0,0,0,3.123,22.663,45.452,45.452,0,0,0,9.129,16.9q11.051,12.654,29.309,12.652a40.817,40.817,0,0,0,16.416-3.163,25.9,25.9,0,0,0,11.291-8.928q4.644-6.646,6.727-17.938l1.842.32q-1.523,12.654-6.887,20.1a32.228,32.228,0,0,1-14.135,10.891,53.792,53.792,0,0,1-20.859,3.763,67.881,67.881,0,0,1-21.141-3.283,46.471,46.471,0,0,1-25.145-19.1q-9.05-13.812-9.049-32.952a68.081,68.081,0,0,1,5.285-27.026,49.933,49.933,0,0,1,14.734-19.9,57.063,57.063,0,0,1,17.416-9.169,60.5,60.5,0,0,1,40.8.28l6.566,2.162a9.8,9.8,0,0,0,3.363.721,3.958,3.958,0,0,0,3.283-1.682,16.4,16.4,0,0,0,1.361-2.643Z" fill="none" stroke="#000" stroke-width="2"/>
      <path id="Path_272" data-name="Path 272" d="M8568.01,1712.844v54.842a47.1,47.1,0,0,1,4.965-5.359,21.882,21.882,0,0,1,5.205-3.361,29.7,29.7,0,0,1,13.293-2.88q9.448,0,15.615,3.759a14.743,14.743,0,0,1,6.046,6.839q1.641,4.038,1.642,12.117v23.355l.08,6.08a35.422,35.422,0,0,0,.641,7.958,8.31,8.31,0,0,0,2.482,4.2q2.241,2.16,8.248,3.279v1.682h-35.367v-1.682a24.127,24.127,0,0,0,6.031-1.358,8.333,8.333,0,0,0,3.236-2.721,12.762,12.762,0,0,0,2-5.438,68.5,68.5,0,0,0,.559-10.159v-25.351a37.561,37.561,0,0,0-.879-9.118,14.792,14.792,0,0,0-2.956-5.839q-4.074-4.719-11.5-4.719-19.336,0-19.334,30.553v12.8l.08,5.918a35.561,35.561,0,0,0,.639,7.958,8.322,8.322,0,0,0,2.477,4.2q2.238,2.16,8.229,3.279v1.682h-35.368v-1.682a20.744,20.744,0,0,0,6.887-1.8,8.241,8.241,0,0,0,3.363-3.959,17.39,17.39,0,0,0,1.241-5.556q.36-3.719.36-10.754v-62.768a112.239,112.239,0,0,0-.4-11.514,12.574,12.574,0,0,0-1.762-5.436,8.165,8.165,0,0,0-3.283-3.2,14.966,14.966,0,0,0-5.525-1.2v-1.761Z" fill="none" stroke="#000" stroke-width="2"/>
      <path id="Path_273" data-name="Path 273" d="M8661.563,1781.791q-.322,3.924-.321,5.686a46.219,46.219,0,0,0,2.035,13.613,33.038,33.038,0,0,0,5.546,11.051,25.885,25.885,0,0,0,20.032,9.609,23.241,23.241,0,0,0,8.18-1.441,17.561,17.561,0,0,0,6.424-4q2.874-2.8,4.949-8.969l1.682.561q-2.083,9.369-8.929,14.133t-18.218,4.765a41.512,41.512,0,0,1-16.9-3.123,30,30,0,0,1-11.932-9.609q-6.807-9.049-6.807-22.262,0-18.018,12.893-28.268a33.427,33.427,0,0,1,21.381-7.447,30.364,30.364,0,0,1,11.852,2.282,24.674,24.674,0,0,1,9.209,6.607q5.845,6.726,5.846,16.816Zm34.913-3.123q-.56-8.007-2.949-12.332a16.761,16.761,0,0,0-5.739-6.206,14.014,14.014,0,0,0-7.652-2.282q-6.857,0-12,5.926a26.364,26.364,0,0,0-6.1,14.894Z" fill="none" stroke="#000" stroke-width="2"/>
      <path id="Path_274" data-name="Path 274" d="M8750.07,1781.791q-.319,3.924-.32,5.686a46.251,46.251,0,0,0,2.035,13.613,33.021,33.021,0,0,0,5.547,11.051,25.881,25.881,0,0,0,20.031,9.609,23.241,23.241,0,0,0,8.18-1.441,17.565,17.565,0,0,0,6.425-4q2.873-2.8,4.948-8.969l1.682.561q-2.083,9.369-8.928,14.133t-18.219,4.765a41.512,41.512,0,0,1-16.9-3.123,30.011,30.011,0,0,1-11.932-9.609q-6.806-9.049-6.807-22.262,0-18.018,12.893-28.268a33.427,33.427,0,0,1,21.381-7.447,30.361,30.361,0,0,1,11.852,2.282,24.667,24.667,0,0,1,9.209,6.607q5.845,6.726,5.846,16.816Zm34.914-3.123q-.56-8.007-2.949-12.332a16.751,16.751,0,0,0-5.738-6.206,14.019,14.019,0,0,0-7.652-2.282q-6.857,0-12,5.926a26.378,26.378,0,0,0-6.1,14.894Z" fill="none" stroke="#000" stroke-width="2"/>
      <path id="Path_275" data-name="Path 275" d="M8844.5,1768.408a23.283,23.283,0,0,1,6.486-7.6,25.494,25.494,0,0,1,15.135-4.721q5.206,0,7.928,2.321a6.434,6.434,0,0,1,2.482,5.121,4.914,4.914,0,0,1-1.48,3.68,5.229,5.229,0,0,1-3.8,1.441,6.143,6.143,0,0,1-4.725-2.241l-2.482-2.718a9.309,9.309,0,0,0-6.967-3.12q-5.446,0-8.488,7.039t-3.043,19.593v14.956l.08,6.078a35.4,35.4,0,0,0,.641,7.958,8.317,8.317,0,0,0,2.482,4.2q2.241,2.16,8.248,3.279v1.682H8821.6v-1.682a20.791,20.791,0,0,0,6.887-1.792,8.216,8.216,0,0,0,3.363-3.945,17.241,17.241,0,0,0,1.242-5.536q.36-3.705.359-10.717V1782a110.978,110.978,0,0,0-.4-11.513,12.427,12.427,0,0,0-1.762-5.378,8.469,8.469,0,0,0-3.283-3.226,14.426,14.426,0,0,0-5.525-1.235v-1.682l20.645-2.883A67.027,67.027,0,0,1,8844.5,1768.408Z" fill="none" stroke="#000" stroke-width="2"/>
      <path id="Path_276" data-name="Path 276" d="M8898.739,1825.354v-22.662h1.282a44.414,44.414,0,0,0,5.591,13.293q6.151,9.049,14.379,9.048a13.217,13.217,0,0,0,8.707-3.043q3.995-3.363,3.994-9.529a14.091,14.091,0,0,0-2.876-8.808,18.69,18.69,0,0,0-4.035-3.684,90.494,90.494,0,0,0-8.187-4.725q-10.066-5.364-13.42-8.968a16.827,16.827,0,0,1-4.794-11.852,17.673,17.673,0,0,1,4.8-12.412q5.525-5.925,14.654-5.926a19.9,19.9,0,0,1,7.607,1.442l2.723,1.2a6.535,6.535,0,0,0,2.242.48q1.521,0,2.883-2.4h1.6l.88,18.178h-1.682a36.733,36.733,0,0,0-1.877-6.166,17.826,17.826,0,0,0-2.834-4.485,18.485,18.485,0,0,0-5.749-4.765,13.823,13.823,0,0,0-6.468-1.721,10.245,10.245,0,0,0-7.626,3.243,10.991,10.991,0,0,0-3.153,7.968,10.344,10.344,0,0,0,2.837,7.087,25.776,25.776,0,0,0,8.748,5.805l8.469,3.844q7.589,3.444,11.346,8.568a19.913,19.913,0,0,1,3.755,12.092,19.039,19.039,0,0,1-5.445,13.934q-6.246,6.406-16.016,6.406a29.9,29.9,0,0,1-10.73-2.082q-3.524-1.36-4.244-1.561a7.062,7.062,0,0,0-1.842-.2,4.649,4.649,0,0,0-4.243,2.4Z" fill="none" stroke="#000" stroke-width="2"/>
      <path id="Path_277" data-name="Path 277" d="M9042.123,1757.287h20.34v3.043h-20.34v46.606q0,8.407,2.873,12.011a10.16,10.16,0,0,0,3.99,3.123,12.781,12.781,0,0,0,5.348,1.122,11.2,11.2,0,0,0,5.988-1.482,20.7,20.7,0,0,0,5.268-5.4l1.2,1.041a16.616,16.616,0,0,1-7.408,7.127,27.053,27.053,0,0,1-11.891,2.322q-9.45,0-13.773-3.684a8.882,8.882,0,0,1-3.043-4.6,43.105,43.105,0,0,1-.721-9.649V1760.33h-8.568v-1.281a22.522,22.522,0,0,0,9.616-6.486,32.1,32.1,0,0,0,4.271-5.886,41.75,41.75,0,0,0,3.064-7.567l.806-2.643h2.983Z" fill="none" stroke="#000" stroke-width="2"/>
      <path id="Path_278" data-name="Path 278" d="M9081.223,1791.561q0-12.974,9.609-23.143,11.691-12.331,27.947-12.332t27.867,12.332q9.609,10.251,9.609,23.223a32.924,32.924,0,0,1-9.129,22.822q-11.212,12.333-28.348,12.332t-28.428-12.332a34.868,34.868,0,0,1-6.767-10.73A32.59,32.59,0,0,1,9081.223,1791.561Zm14.574-.92q0,13.919,6.246,23.595,7.046,10.8,17.217,10.8a16.4,16.4,0,0,0,8.408-2.4,22.171,22.171,0,0,0,7.047-6.719,37.489,37.489,0,0,0,5.045-11.237,47.739,47.739,0,0,0,1.922-13.078,45.089,45.089,0,0,0-2.042-13.237,39.235,39.235,0,0,0-5.485-11.479q-6.567-9.036-16.1-9.037-9.05,0-15.615,9.517Q9095.8,1776.886,9095.8,1790.641Z" fill="none" stroke="#000" stroke-width="2"/>
    </g>
    <g id="Group_32" data-name="Group 32" style="isolation: isolate">
      <path id="Path_279" data-name="Path 279" d="M8414.8,1859.047h50.369v1.842q-7.049,0-9.609,1.041a7.911,7.911,0,0,0-3.523,3.123,8.97,8.97,0,0,0-1.361,4.885q0,3.363,2.563,9.289l2.082,4.965,24.9,60.859L8497.6,1892.6q3.363-10.09,3.363-15.055a20.051,20.051,0,0,0-1.322-7.167,15.742,15.742,0,0,0-3.482-5.645,11.949,11.949,0,0,0-4.766-2.963,22.344,22.344,0,0,0-6.846-.881v-1.842h51.49v1.842a51.474,51.474,0,0,0-6.848.32,11.483,11.483,0,0,0-3.963,1.361,10.742,10.742,0,0,0-3.885,4.124,11.814,11.814,0,0,0-1.48,5.806q0,2.883,2.242,10.01l19.7,63.5,22.021-54.053q5.124-12.411,5.125-19.219,0-7.126-4.725-10.089-2.883-1.761-8.729-1.762v-1.842h37.076v1.842a22.773,22.773,0,0,0-8.129,2.042,16.8,16.8,0,0,0-5.484,5.405q-4,5.605-10.01,20.26l-32.912,79.758h-3.283l-28.508-85.284-28.908,85.284h-3.6l-35.795-86.164-2.4-5.846a61.8,61.8,0,0,0-4.164-8.568,13.79,13.79,0,0,0-8.248-6.006,40.87,40.87,0,0,0-6.326-.881Z" fill="#070707"/>
      <path id="Path_280" data-name="Path 280" d="M8630.551,1855.844v54.842a47.1,47.1,0,0,1,4.965-5.359,21.882,21.882,0,0,1,5.205-3.361,29.7,29.7,0,0,1,13.293-2.88q9.45,0,15.615,3.759a14.743,14.743,0,0,1,6.046,6.839q1.641,4.038,1.642,12.117v23.355l.08,6.08a35.422,35.422,0,0,0,.641,7.958,8.31,8.31,0,0,0,2.482,4.2q2.241,2.16,8.248,3.279v1.682H8653.4v-1.682a24.127,24.127,0,0,0,6.031-1.358,8.333,8.333,0,0,0,3.236-2.721,12.762,12.762,0,0,0,2-5.438,68.5,68.5,0,0,0,.559-10.159v-25.351a37.561,37.561,0,0,0-.879-9.118,14.792,14.792,0,0,0-2.956-5.839q-4.074-4.719-11.5-4.719-19.336,0-19.334,30.553v12.8l.08,5.918a35.561,35.561,0,0,0,.639,7.958,8.322,8.322,0,0,0,2.477,4.2q2.238,2.16,8.229,3.279v1.682h-35.368v-1.682a20.744,20.744,0,0,0,6.887-1.8,8.241,8.241,0,0,0,3.363-3.959,17.39,17.39,0,0,0,1.241-5.556q.36-3.719.36-10.754v-62.768a112.239,112.239,0,0,0-.4-11.514,12.574,12.574,0,0,0-1.762-5.436,8.165,8.165,0,0,0-3.283-3.2,14.966,14.966,0,0,0-5.525-1.2v-1.761Z" fill="#070707"/>
      <path id="Path_281" data-name="Path 281" d="M8775.674,1960.586l1.361.8q-2.883,8.407-13.213,8.408a15.416,15.416,0,0,1-9.463-2.8,21.153,21.153,0,0,1-5.133-6.406,53.111,53.111,0,0,1-8.1,6.326,24.622,24.622,0,0,1-12.109,2.883q-8.824,0-14-4.244a14.042,14.042,0,0,1-5.172-11.451,15.566,15.566,0,0,1,4.244-11.131,18.924,18.924,0,0,1,5.525-3.964,52.944,52.944,0,0,1,9.049-3q6.968-1.761,10.29-2.963a21.3,21.3,0,0,0,5.565-2.883,9.633,9.633,0,0,0,3.523-4.324,19.667,19.667,0,0,0,.961-6.887q0-9.369-3.523-13.693a11.546,11.546,0,0,0-4.124-3.2,12.061,12.061,0,0,0-5.245-1.2,10.412,10.412,0,0,0-5.846,1.681,10.3,10.3,0,0,0-3.844,4.645l-2,4.645a5.777,5.777,0,0,1-5.766,3.763,6.266,6.266,0,0,1-4.564-1.8,6.063,6.063,0,0,1-1.842-4.524q0-4.085,5.775-6.887a35.057,35.057,0,0,1,7.74-2.362,46.09,46.09,0,0,1,9.022-.921,44.663,44.663,0,0,1,10.348,1.281,35.685,35.685,0,0,1,8.983,3.284q5.212,2.962,6.5,7.687a35.214,35.214,0,0,1,.643,8.088v29.629a53.225,53.225,0,0,0,.641,10.25q1.361,5.686,6.566,5.685a7.282,7.282,0,0,0,3.884-.88A13.842,13.842,0,0,0,8775.674,1960.586Zm-26.506-31.551a53.489,53.489,0,0,1-9.5,6.326,83.367,83.367,0,0,0-8.063,4.725,21.319,21.319,0,0,0-4.07,3.844,16.694,16.694,0,0,0-3.752,10.81,13.044,13.044,0,0,0,2.913,8.729,9.253,9.253,0,0,0,7.384,3.443,12.608,12.608,0,0,0,7.385-2.442,15.085,15.085,0,0,0,5.229-6.526q2.473-5.366,2.475-15.536Z" fill="#070707"/>
      <path id="Path_282" data-name="Path 282" d="M8812.451,1900.287h20.34v3.043h-20.34v46.606q0,8.407,2.875,12.011a10.139,10.139,0,0,0,3.99,3.123,12.775,12.775,0,0,0,5.348,1.122,11.184,11.184,0,0,0,5.986-1.482,20.682,20.682,0,0,0,5.268-5.4l1.2,1.041a16.612,16.612,0,0,1-7.406,7.127,27.062,27.062,0,0,1-11.893,2.322q-9.448,0-13.773-3.684a8.882,8.882,0,0,1-3.043-4.6,43.105,43.105,0,0,1-.721-9.649V1903.33h-8.568v-1.281a22.513,22.513,0,0,0,9.617-6.486,32.189,32.189,0,0,0,4.271-5.886,41.68,41.68,0,0,0,3.064-7.567l.806-2.643h2.982Z" fill="#070707"/>
      <path id="Path_283" data-name="Path 283" d="M8854.674,1898.285l-.721-1.681a35.2,35.2,0,0,0,8.248-4.565,21.134,21.134,0,0,0,5.205-6.166,27.028,27.028,0,0,0,3.844-11.211,12.151,12.151,0,0,1-3.764.721,10.17,10.17,0,0,1-7.207-2.6,8.8,8.8,0,0,1-2.8-6.766,9.533,9.533,0,0,1,2.8-6.887,9.05,9.05,0,0,1,6.727-2.883,9.345,9.345,0,0,1,7.768,3.844q2.962,3.844,2.963,10.17a27.857,27.857,0,0,1-3,12.372,28.647,28.647,0,0,1-7.969,10.05A28.345,28.345,0,0,1,8854.674,1898.285Z" fill="#070707"/>
      <path id="Path_284" data-name="Path 284" d="M8908.028,1968.354v-22.662h1.281a44.438,44.438,0,0,0,5.592,13.293q6.151,9.049,14.379,9.048a13.217,13.217,0,0,0,8.707-3.043q3.995-3.363,3.994-9.529a14.091,14.091,0,0,0-2.876-8.808,18.69,18.69,0,0,0-4.035-3.684,90.494,90.494,0,0,0-8.187-4.725q-10.066-5.364-13.42-8.968a16.827,16.827,0,0,1-4.794-11.852,17.677,17.677,0,0,1,4.8-12.412q5.525-5.925,14.654-5.926a19.9,19.9,0,0,1,7.607,1.442l2.723,1.2a6.531,6.531,0,0,0,2.242.48q1.521,0,2.883-2.4h1.6l.881,18.178h-1.682a36.733,36.733,0,0,0-1.877-6.166,17.826,17.826,0,0,0-2.834-4.485,18.485,18.485,0,0,0-5.749-4.765,13.823,13.823,0,0,0-6.468-1.721,10.245,10.245,0,0,0-7.626,3.243,10.991,10.991,0,0,0-3.153,7.968,10.344,10.344,0,0,0,2.837,7.087,25.776,25.776,0,0,0,8.748,5.805l8.469,3.844q7.589,3.444,11.346,8.568a19.913,19.913,0,0,1,3.755,12.092,19.039,19.039,0,0,1-5.445,13.934q-6.246,6.406-16.016,6.406a29.9,29.9,0,0,1-10.73-2.082q-3.524-1.36-4.243-1.561a7.075,7.075,0,0,0-1.843-.2,4.652,4.652,0,0,0-4.244,2.4Z" fill="#070707"/>
    </g>
    <g id="Group_33" data-name="Group 33" style="isolation: isolate">
      <path id="Path_285" data-name="Path 285" d="M8414.8,1859.047h50.369v1.842q-7.049,0-9.609,1.041a7.911,7.911,0,0,0-3.523,3.123,8.97,8.97,0,0,0-1.361,4.885q0,3.363,2.563,9.289l2.082,4.965,24.9,60.859L8497.6,1892.6q3.363-10.09,3.363-15.055a20.051,20.051,0,0,0-1.322-7.167,15.742,15.742,0,0,0-3.482-5.645,11.949,11.949,0,0,0-4.766-2.963,22.344,22.344,0,0,0-6.846-.881v-1.842h51.49v1.842a51.474,51.474,0,0,0-6.848.32,11.483,11.483,0,0,0-3.963,1.361,10.742,10.742,0,0,0-3.885,4.124,11.814,11.814,0,0,0-1.48,5.806q0,2.883,2.242,10.01l19.7,63.5,22.021-54.053q5.124-12.411,5.125-19.219,0-7.126-4.725-10.089-2.883-1.761-8.729-1.762v-1.842h37.076v1.842a22.773,22.773,0,0,0-8.129,2.042,16.8,16.8,0,0,0-5.484,5.405q-4,5.605-10.01,20.26l-32.912,79.758h-3.283l-28.508-85.284-28.908,85.284h-3.6l-35.795-86.164-2.4-5.846a61.8,61.8,0,0,0-4.164-8.568,13.79,13.79,0,0,0-8.248-6.006,40.87,40.87,0,0,0-6.326-.881Z" fill="none" stroke="#000" stroke-width="2"/>
      <path id="Path_286" data-name="Path 286" d="M8630.551,1855.844v54.842a47.1,47.1,0,0,1,4.965-5.359,21.882,21.882,0,0,1,5.205-3.361,29.7,29.7,0,0,1,13.293-2.88q9.45,0,15.615,3.759a14.743,14.743,0,0,1,6.046,6.839q1.641,4.038,1.642,12.117v23.355l.08,6.08a35.422,35.422,0,0,0,.641,7.958,8.31,8.31,0,0,0,2.482,4.2q2.241,2.16,8.248,3.279v1.682H8653.4v-1.682a24.127,24.127,0,0,0,6.031-1.358,8.333,8.333,0,0,0,3.236-2.721,12.762,12.762,0,0,0,2-5.438,68.5,68.5,0,0,0,.559-10.159v-25.351a37.561,37.561,0,0,0-.879-9.118,14.792,14.792,0,0,0-2.956-5.839q-4.074-4.719-11.5-4.719-19.336,0-19.334,30.553v12.8l.08,5.918a35.561,35.561,0,0,0,.639,7.958,8.322,8.322,0,0,0,2.477,4.2q2.238,2.16,8.229,3.279v1.682h-35.368v-1.682a20.744,20.744,0,0,0,6.887-1.8,8.241,8.241,0,0,0,3.363-3.959,17.39,17.39,0,0,0,1.241-5.556q.36-3.719.36-10.754v-62.768a112.239,112.239,0,0,0-.4-11.514,12.574,12.574,0,0,0-1.762-5.436,8.165,8.165,0,0,0-3.283-3.2,14.966,14.966,0,0,0-5.525-1.2v-1.761Z" fill="none" stroke="#000" stroke-width="2"/>
      <path id="Path_287" data-name="Path 287" d="M8775.674,1960.586l1.361.8q-2.883,8.407-13.213,8.408a15.416,15.416,0,0,1-9.463-2.8,21.153,21.153,0,0,1-5.133-6.406,53.111,53.111,0,0,1-8.1,6.326,24.622,24.622,0,0,1-12.109,2.883q-8.824,0-14-4.244a14.042,14.042,0,0,1-5.172-11.451,15.566,15.566,0,0,1,4.244-11.131,18.924,18.924,0,0,1,5.525-3.964,52.944,52.944,0,0,1,9.049-3q6.968-1.761,10.29-2.963a21.3,21.3,0,0,0,5.565-2.883,9.633,9.633,0,0,0,3.523-4.324,19.667,19.667,0,0,0,.961-6.887q0-9.369-3.523-13.693a11.546,11.546,0,0,0-4.124-3.2,12.061,12.061,0,0,0-5.245-1.2,10.412,10.412,0,0,0-5.846,1.681,10.3,10.3,0,0,0-3.844,4.645l-2,4.645a5.777,5.777,0,0,1-5.766,3.763,6.266,6.266,0,0,1-4.564-1.8,6.063,6.063,0,0,1-1.842-4.524q0-4.085,5.775-6.887a35.057,35.057,0,0,1,7.74-2.362,46.09,46.09,0,0,1,9.022-.921,44.663,44.663,0,0,1,10.348,1.281,35.685,35.685,0,0,1,8.983,3.284q5.212,2.962,6.5,7.687a35.214,35.214,0,0,1,.643,8.088v29.629a53.225,53.225,0,0,0,.641,10.25q1.361,5.686,6.566,5.685a7.282,7.282,0,0,0,3.884-.88A13.842,13.842,0,0,0,8775.674,1960.586Zm-26.506-31.551a53.489,53.489,0,0,1-9.5,6.326,83.367,83.367,0,0,0-8.063,4.725,21.319,21.319,0,0,0-4.07,3.844,16.694,16.694,0,0,0-3.752,10.81,13.044,13.044,0,0,0,2.913,8.729,9.253,9.253,0,0,0,7.384,3.443,12.608,12.608,0,0,0,7.385-2.442,15.085,15.085,0,0,0,5.229-6.526q2.473-5.366,2.475-15.536Z" fill="none" stroke="#000" stroke-width="2"/>
      <path id="Path_288" data-name="Path 288" d="M8812.451,1900.287h20.34v3.043h-20.34v46.606q0,8.407,2.875,12.011a10.139,10.139,0,0,0,3.99,3.123,12.775,12.775,0,0,0,5.348,1.122,11.184,11.184,0,0,0,5.986-1.482,20.682,20.682,0,0,0,5.268-5.4l1.2,1.041a16.612,16.612,0,0,1-7.406,7.127,27.062,27.062,0,0,1-11.893,2.322q-9.448,0-13.773-3.684a8.882,8.882,0,0,1-3.043-4.6,43.105,43.105,0,0,1-.721-9.649V1903.33h-8.568v-1.281a22.513,22.513,0,0,0,9.617-6.486,32.189,32.189,0,0,0,4.271-5.886,41.68,41.68,0,0,0,3.064-7.567l.806-2.643h2.982Z" fill="none" stroke="#000" stroke-width="2"/>
      <path id="Path_289" data-name="Path 289" d="M8854.674,1898.285l-.721-1.681a35.2,35.2,0,0,0,8.248-4.565,21.134,21.134,0,0,0,5.205-6.166,27.028,27.028,0,0,0,3.844-11.211,12.151,12.151,0,0,1-3.764.721,10.17,10.17,0,0,1-7.207-2.6,8.8,8.8,0,0,1-2.8-6.766,9.533,9.533,0,0,1,2.8-6.887,9.05,9.05,0,0,1,6.727-2.883,9.345,9.345,0,0,1,7.768,3.844q2.962,3.844,2.963,10.17a27.857,27.857,0,0,1-3,12.372,28.647,28.647,0,0,1-7.969,10.05A28.345,28.345,0,0,1,8854.674,1898.285Z" fill="none" stroke="#000" stroke-width="2"/>
      <path id="Path_290" data-name="Path 290" d="M8908.028,1968.354v-22.662h1.281a44.438,44.438,0,0,0,5.592,13.293q6.151,9.049,14.379,9.048a13.217,13.217,0,0,0,8.707-3.043q3.995-3.363,3.994-9.529a14.091,14.091,0,0,0-2.876-8.808,18.69,18.69,0,0,0-4.035-3.684,90.494,90.494,0,0,0-8.187-4.725q-10.066-5.364-13.42-8.968a16.827,16.827,0,0,1-4.794-11.852,17.677,17.677,0,0,1,4.8-12.412q5.525-5.925,14.654-5.926a19.9,19.9,0,0,1,7.607,1.442l2.723,1.2a6.531,6.531,0,0,0,2.242.48q1.521,0,2.883-2.4h1.6l.881,18.178h-1.682a36.733,36.733,0,0,0-1.877-6.166,17.826,17.826,0,0,0-2.834-4.485,18.485,18.485,0,0,0-5.749-4.765,13.823,13.823,0,0,0-6.468-1.721,10.245,10.245,0,0,0-7.626,3.243,10.991,10.991,0,0,0-3.153,7.968,10.344,10.344,0,0,0,2.837,7.087,25.776,25.776,0,0,0,8.748,5.805l8.469,3.844q7.589,3.444,11.346,8.568a19.913,19.913,0,0,1,3.755,12.092,19.039,19.039,0,0,1-5.445,13.934q-6.246,6.406-16.016,6.406a29.9,29.9,0,0,1-10.73-2.082q-3.524-1.36-4.243-1.561a7.075,7.075,0,0,0-1.843-.2,4.652,4.652,0,0,0-4.244,2.4Z" fill="none" stroke="#000" stroke-width="2"/>
    </g>
    <g id="Group_34" data-name="Group 34" style="isolation: isolate">
      <path id="Path_291" data-name="Path 291" d="M8532.914,2111.354H8480.3v-1.842q7.125-.641,9.93-2.4a9.725,9.725,0,0,0,4.965-8.649q0-3.282-2.242-8.808l-1.361-3.364-7.687-18.9h-35.234l-4.164,11.051-2,4.964q-3.6,8.81-3.6,13.854a11.875,11.875,0,0,0,1.32,5.525,11.482,11.482,0,0,0,3.564,4.164,16.152,16.152,0,0,0,8.008,2.563v1.842H8415.92v-1.842a16.614,16.614,0,0,0,7.447-2.082,21.426,21.426,0,0,0,6.246-5.926,45.31,45.31,0,0,0,5-8.448q2.443-5.166,6.447-15.495l29.309-75.514h4.565l34.833,84.162a132.381,132.381,0,0,0,6.246,13.613,20.118,20.118,0,0,0,5.046,6.166,14.172,14.172,0,0,0,4.4,2.2,44.2,44.2,0,0,0,7.447,1.321Zm-50.289-47.246-16.816-41.481-15.855,41.481Z" fill="#070707"/>
      <path id="Path_292" data-name="Path 292" d="M8571.934,1998.844v54.842a47.1,47.1,0,0,1,4.965-5.359,21.886,21.886,0,0,1,5.205-3.361,29.7,29.7,0,0,1,13.293-2.88q9.448,0,15.615,3.759a14.742,14.742,0,0,1,6.046,6.839q1.641,4.038,1.642,12.117v23.355l.08,6.08a35.424,35.424,0,0,0,.641,7.958,8.312,8.312,0,0,0,2.482,4.2q2.241,2.16,8.248,3.279v1.682h-35.367v-1.682a24.126,24.126,0,0,0,6.031-1.358,8.333,8.333,0,0,0,3.236-2.721,12.762,12.762,0,0,0,2-5.438,68.5,68.5,0,0,0,.559-10.159v-25.351a37.559,37.559,0,0,0-.879-9.118,14.793,14.793,0,0,0-2.956-5.839q-4.074-4.719-11.5-4.719-19.336,0-19.334,30.553v12.8l.08,5.918a35.561,35.561,0,0,0,.639,7.958,8.323,8.323,0,0,0,2.477,4.2q2.238,2.16,8.229,3.279v1.682H8547.99v-1.682a20.744,20.744,0,0,0,6.887-1.8,8.241,8.241,0,0,0,3.363-3.959,17.391,17.391,0,0,0,1.241-5.556q.36-3.719.36-10.754v-62.768a112.239,112.239,0,0,0-.4-11.514,12.574,12.574,0,0,0-1.762-5.436,8.165,8.165,0,0,0-3.283-3.2,14.966,14.966,0,0,0-5.525-1.2v-1.761Z" fill="#070707"/>
      <path id="Path_293" data-name="Path 293" d="M8665.486,2067.791q-.321,3.924-.32,5.686a46.221,46.221,0,0,0,2.035,13.613,33.04,33.04,0,0,0,5.546,11.051,25.886,25.886,0,0,0,20.032,9.609,23.243,23.243,0,0,0,8.18-1.441,17.565,17.565,0,0,0,6.424-4q2.874-2.8,4.949-8.969l1.682.561q-2.083,9.369-8.929,14.133t-18.218,4.765a41.516,41.516,0,0,1-16.9-3.123,30,30,0,0,1-11.932-9.609q-6.807-9.049-6.807-22.262,0-18.018,12.893-28.268a33.427,33.427,0,0,1,21.381-7.447,30.364,30.364,0,0,1,11.852,2.282,24.673,24.673,0,0,1,9.209,6.607q5.845,6.726,5.846,16.816Zm34.914-3.123q-.56-8.007-2.949-12.332a16.762,16.762,0,0,0-5.739-6.206,14.017,14.017,0,0,0-7.652-2.282q-6.857,0-12,5.926a26.359,26.359,0,0,0-6.1,14.894Z" fill="#070707"/>
      <path id="Path_294" data-name="Path 294" d="M8805.564,2103.586l1.361.8q-2.883,8.407-13.213,8.408a15.419,15.419,0,0,1-9.463-2.8,21.17,21.17,0,0,1-5.133-6.406,53.068,53.068,0,0,1-8.1,6.326,24.621,24.621,0,0,1-12.109,2.883q-8.823,0-14-4.244a14.04,14.04,0,0,1-5.173-11.451,15.566,15.566,0,0,1,4.244-11.131,18.924,18.924,0,0,1,5.525-3.964,52.978,52.978,0,0,1,9.049-3q6.967-1.761,10.291-2.963a21.275,21.275,0,0,0,5.564-2.883,9.636,9.636,0,0,0,3.524-4.324,19.716,19.716,0,0,0,.96-6.887q0-9.369-3.523-13.693a11.543,11.543,0,0,0-4.123-3.2,12.066,12.066,0,0,0-5.246-1.2,10.414,10.414,0,0,0-5.846,1.681,10.3,10.3,0,0,0-3.844,4.645l-2,4.645a5.777,5.777,0,0,1-5.766,3.763,6.27,6.27,0,0,1-4.564-1.8,6.063,6.063,0,0,1-1.842-4.524q0-4.085,5.775-6.887a35.09,35.09,0,0,1,7.74-2.362,46.092,46.092,0,0,1,9.023-.921,44.67,44.67,0,0,1,10.348,1.281,35.713,35.713,0,0,1,8.983,3.284q5.212,2.962,6.5,7.687a35.174,35.174,0,0,1,.642,8.088v29.629a53.223,53.223,0,0,0,.641,10.25q1.362,5.687,6.566,5.685a7.289,7.289,0,0,0,3.885-.88A13.846,13.846,0,0,0,8805.564,2103.586Zm-26.506-31.551a53.475,53.475,0,0,1-9.5,6.326,83.406,83.406,0,0,0-8.063,4.725,21.3,21.3,0,0,0-4.07,3.844,16.69,16.69,0,0,0-3.753,10.81,13.039,13.039,0,0,0,2.914,8.729,9.254,9.254,0,0,0,7.384,3.443,12.6,12.6,0,0,0,7.384-2.442,15.078,15.078,0,0,0,5.229-6.526q2.474-5.366,2.475-15.536Z" fill="#070707"/>
      <path id="Path_295" data-name="Path 295" d="M8879.741,2114.076a43.151,43.151,0,0,1-.8-8.488,47.348,47.348,0,0,1-11.155,5.525,36.517,36.517,0,0,1-11.235,1.682,31.173,31.173,0,0,1-20.79-7.287,30.412,30.412,0,0,1-8.477-11.651,39.019,39.019,0,0,1-2.959-15.335,41.041,41.041,0,0,1,3.2-16.3,33.559,33.559,0,0,1,8.955-12.452,32.53,32.53,0,0,1,21.67-7.688,27.5,27.5,0,0,1,10.395,1.762,42.615,42.615,0,0,1,10.074,6.406v-29.606q0-8.7-2.9-12.528t-9.592-3.831v-1.922l24.584-3.123v92.676q0,9.036,2.883,12.873t9.529,3.838v2Zm-1.124-37.316a106.894,106.894,0,0,0-.957-16.7,22.216,22.216,0,0,0-3.43-9.089,15.552,15.552,0,0,0-5.783-4.885,16.294,16.294,0,0,0-7.457-1.842q-8.536,0-14.756,8.008a36.3,36.3,0,0,0-5.863,11.451,44.948,44.948,0,0,0-2.113,13.694,46.461,46.461,0,0,0,1.994,13.493,37.6,37.6,0,0,0,5.424,11.331q5.982,8.167,14.677,8.168a16.034,16.034,0,0,0,7.9-2.082,16.551,16.551,0,0,0,6.062-5.766,26.087,26.087,0,0,0,3.35-9.489A104.325,104.325,0,0,0,8878.617,2076.76Z" fill="#070707"/>
    </g>
    <g id="Group_35" data-name="Group 35" style="isolation: isolate">
      <path id="Path_296" data-name="Path 296" d="M8532.914,2111.354H8480.3v-1.842q7.125-.641,9.93-2.4a9.725,9.725,0,0,0,4.965-8.649q0-3.282-2.242-8.808l-1.361-3.364-7.687-18.9h-35.234l-4.164,11.051-2,4.964q-3.6,8.81-3.6,13.854a11.875,11.875,0,0,0,1.32,5.525,11.482,11.482,0,0,0,3.564,4.164,16.152,16.152,0,0,0,8.008,2.563v1.842H8415.92v-1.842a16.614,16.614,0,0,0,7.447-2.082,21.426,21.426,0,0,0,6.246-5.926,45.31,45.31,0,0,0,5-8.448q2.443-5.166,6.447-15.495l29.309-75.514h4.565l34.833,84.162a132.381,132.381,0,0,0,6.246,13.613,20.118,20.118,0,0,0,5.046,6.166,14.172,14.172,0,0,0,4.4,2.2,44.2,44.2,0,0,0,7.447,1.321Zm-50.289-47.246-16.816-41.481-15.855,41.481Z" fill="none" stroke="#000" stroke-width="2"/>
      <path id="Path_297" data-name="Path 297" d="M8571.934,1998.844v54.842a47.1,47.1,0,0,1,4.965-5.359,21.886,21.886,0,0,1,5.205-3.361,29.7,29.7,0,0,1,13.293-2.88q9.448,0,15.615,3.759a14.742,14.742,0,0,1,6.046,6.839q1.641,4.038,1.642,12.117v23.355l.08,6.08a35.424,35.424,0,0,0,.641,7.958,8.312,8.312,0,0,0,2.482,4.2q2.241,2.16,8.248,3.279v1.682h-35.367v-1.682a24.126,24.126,0,0,0,6.031-1.358,8.333,8.333,0,0,0,3.236-2.721,12.762,12.762,0,0,0,2-5.438,68.5,68.5,0,0,0,.559-10.159v-25.351a37.559,37.559,0,0,0-.879-9.118,14.793,14.793,0,0,0-2.956-5.839q-4.074-4.719-11.5-4.719-19.336,0-19.334,30.553v12.8l.08,5.918a35.561,35.561,0,0,0,.639,7.958,8.323,8.323,0,0,0,2.477,4.2q2.238,2.16,8.229,3.279v1.682H8547.99v-1.682a20.744,20.744,0,0,0,6.887-1.8,8.241,8.241,0,0,0,3.363-3.959,17.391,17.391,0,0,0,1.241-5.556q.36-3.719.36-10.754v-62.768a112.239,112.239,0,0,0-.4-11.514,12.574,12.574,0,0,0-1.762-5.436,8.165,8.165,0,0,0-3.283-3.2,14.966,14.966,0,0,0-5.525-1.2v-1.761Z" fill="none" stroke="#000" stroke-width="2"/>
      <path id="Path_298" data-name="Path 298" d="M8665.486,2067.791q-.321,3.924-.32,5.686a46.221,46.221,0,0,0,2.035,13.613,33.04,33.04,0,0,0,5.546,11.051,25.886,25.886,0,0,0,20.032,9.609,23.243,23.243,0,0,0,8.18-1.441,17.565,17.565,0,0,0,6.424-4q2.874-2.8,4.949-8.969l1.682.561q-2.083,9.369-8.929,14.133t-18.218,4.765a41.516,41.516,0,0,1-16.9-3.123,30,30,0,0,1-11.932-9.609q-6.807-9.049-6.807-22.262,0-18.018,12.893-28.268a33.427,33.427,0,0,1,21.381-7.447,30.364,30.364,0,0,1,11.852,2.282,24.673,24.673,0,0,1,9.209,6.607q5.845,6.726,5.846,16.816Zm34.914-3.123q-.56-8.007-2.949-12.332a16.762,16.762,0,0,0-5.739-6.206,14.017,14.017,0,0,0-7.652-2.282q-6.857,0-12,5.926a26.359,26.359,0,0,0-6.1,14.894Z" fill="none" stroke="#000" stroke-width="2"/>
      <path id="Path_299" data-name="Path 299" d="M8805.564,2103.586l1.361.8q-2.883,8.407-13.213,8.408a15.419,15.419,0,0,1-9.463-2.8,21.17,21.17,0,0,1-5.133-6.406,53.068,53.068,0,0,1-8.1,6.326,24.621,24.621,0,0,1-12.109,2.883q-8.823,0-14-4.244a14.04,14.04,0,0,1-5.173-11.451,15.566,15.566,0,0,1,4.244-11.131,18.924,18.924,0,0,1,5.525-3.964,52.978,52.978,0,0,1,9.049-3q6.967-1.761,10.291-2.963a21.275,21.275,0,0,0,5.564-2.883,9.636,9.636,0,0,0,3.524-4.324,19.716,19.716,0,0,0,.96-6.887q0-9.369-3.523-13.693a11.543,11.543,0,0,0-4.123-3.2,12.066,12.066,0,0,0-5.246-1.2,10.414,10.414,0,0,0-5.846,1.681,10.3,10.3,0,0,0-3.844,4.645l-2,4.645a5.777,5.777,0,0,1-5.766,3.763,6.27,6.27,0,0,1-4.564-1.8,6.063,6.063,0,0,1-1.842-4.524q0-4.085,5.775-6.887a35.09,35.09,0,0,1,7.74-2.362,46.092,46.092,0,0,1,9.023-.921,44.67,44.67,0,0,1,10.348,1.281,35.713,35.713,0,0,1,8.983,3.284q5.212,2.962,6.5,7.687a35.174,35.174,0,0,1,.642,8.088v29.629a53.223,53.223,0,0,0,.641,10.25q1.362,5.687,6.566,5.685a7.289,7.289,0,0,0,3.885-.88A13.846,13.846,0,0,0,8805.564,2103.586Zm-26.506-31.551a53.475,53.475,0,0,1-9.5,6.326,83.406,83.406,0,0,0-8.063,4.725,21.3,21.3,0,0,0-4.07,3.844,16.69,16.69,0,0,0-3.753,10.81,13.039,13.039,0,0,0,2.914,8.729,9.254,9.254,0,0,0,7.384,3.443,12.6,12.6,0,0,0,7.384-2.442,15.078,15.078,0,0,0,5.229-6.526q2.474-5.366,2.475-15.536Z" fill="none" stroke="#000" stroke-width="2"/>
      <path id="Path_300" data-name="Path 300" d="M8879.741,2114.076a43.151,43.151,0,0,1-.8-8.488,47.348,47.348,0,0,1-11.155,5.525,36.517,36.517,0,0,1-11.235,1.682,31.173,31.173,0,0,1-20.79-7.287,30.412,30.412,0,0,1-8.477-11.651,39.019,39.019,0,0,1-2.959-15.335,41.041,41.041,0,0,1,3.2-16.3,33.559,33.559,0,0,1,8.955-12.452,32.53,32.53,0,0,1,21.67-7.688,27.5,27.5,0,0,1,10.395,1.762,42.615,42.615,0,0,1,10.074,6.406v-29.606q0-8.7-2.9-12.528t-9.592-3.831v-1.922l24.584-3.123v92.676q0,9.036,2.883,12.873t9.529,3.838v2Zm-1.124-37.316a106.894,106.894,0,0,0-.957-16.7,22.216,22.216,0,0,0-3.43-9.089,15.552,15.552,0,0,0-5.783-4.885,16.294,16.294,0,0,0-7.457-1.842q-8.536,0-14.756,8.008a36.3,36.3,0,0,0-5.863,11.451,44.948,44.948,0,0,0-2.113,13.694,46.461,46.461,0,0,0,1.994,13.493,37.6,37.6,0,0,0,5.424,11.331q5.982,8.167,14.677,8.168a16.034,16.034,0,0,0,7.9-2.082,16.551,16.551,0,0,0,6.062-5.766,26.087,26.087,0,0,0,3.35-9.489A104.325,104.325,0,0,0,8878.617,2076.76Z" fill="none" stroke="#000" stroke-width="2"/>
    </g>
  </g>
</svg>
