<svg id="instagram" xmlns="http://www.w3.org/2000/svg" width="16.892" height="16.892" viewBox="0 0 16.892 16.892">
  <path id="Path_4" data-name="Path 4" d="M11.86,0H5.032A5.038,5.038,0,0,0,0,5.032V11.86a5.038,5.038,0,0,0,5.032,5.032H11.86a5.038,5.038,0,0,0,5.032-5.032V5.032A5.038,5.038,0,0,0,11.86,0Zm3.333,11.86a3.333,3.333,0,0,1-3.333,3.333H5.032A3.333,3.333,0,0,1,1.7,11.86V5.032A3.333,3.333,0,0,1,5.032,1.7H11.86a3.333,3.333,0,0,1,3.333,3.333Z" fill="#acacac"/>
  <path id="Path_5" data-name="Path 5" d="M136.694,133a3.694,3.694,0,1,0,3.694,3.694A3.694,3.694,0,0,0,136.694,133Zm0,5.952a2.258,2.258,0,1,1,2.258-2.258A2.258,2.258,0,0,1,136.694,138.952Z" transform="translate(-128.248 -128.248)" fill="#acacac"/>
  <circle id="Ellipse_2" data-name="Ellipse 2" cx="1.22" cy="1.22" r="1.22" transform="translate(11.501 2.992)" fill="#acacac"/>
</svg>
