<svg xmlns="http://www.w3.org/2000/svg" width="56" height="56" viewBox="0 0 56 56">
  <g id="play" transform="translate(-304 -959)">
    <g id="circle" transform="translate(304 959)" fill="none" stroke="#6592ec" stroke-width="1">
      <rect width="56" height="56" rx="28" stroke="none"/>
      <rect x="0.5" y="0.5" width="55" height="55" rx="27.5" fill="none"/>
    </g>
    <g id="triangle" transform="translate(342 978) rotate(90)" fill="#6592ec">
      <path d="M 15.22297954559326 13.50000190734863 L 1.77701997756958 13.50000190734863 C 1.513149976730347 13.50000190734863 1.384389996528625 13.32182121276855 1.341279983520508 13.24521160125732 C 1.29816997051239 13.16860198974609 1.212689995765686 12.96607208251953 1.349629998207092 12.74051189422607 L 8.072600364685059 1.66737163066864 C 8.204400062561035 1.450301647186279 8.415399551391602 1.426861643791199 8.5 1.426861643791199 C 8.584600448608398 1.426861643791199 8.795599937438965 1.450301647186279 8.927399635314941 1.66737163066864 L 15.65036964416504 12.74051189422607 C 15.78730964660645 12.96607208251953 15.70182991027832 13.16860198974609 15.65872001647949 13.24521160125732 C 15.61561012268066 13.32182121276855 15.48684978485107 13.50000190734863 15.22297954559326 13.50000190734863 Z" stroke="none"/>
      <path d="M 8.499850273132324 1.927108764648438 L 8.5 1.926861763000488 L 1.777020454406738 13.00000190734863 L 15.2229700088501 13.00000190734863 L 8.499850273132324 1.927108764648438 M 8.5 0.9268617630004883 C 8.830044746398926 0.9268617630004883 9.160089492797852 1.087202072143555 9.354789733886719 1.407881736755371 L 16.07776069641113 12.48102188110352 C 16.48237991333008 13.14744186401367 16.00260925292969 14.00000190734863 15.2229700088501 14.00000190734863 L 1.777020454406738 14.00000190734863 C 0.9973907470703125 14.00000190734863 0.5176200866699219 13.14744186401367 0.9222393035888672 12.48102188110352 L 7.645210266113281 1.407881736755371 C 7.839909553527832 1.087202072143555 8.169955253601074 0.9268617630004883 8.5 0.9268617630004883 Z" stroke="none" fill="#6592ec"/>
    </g>
  </g>
</svg>
