<svg xmlns="http://www.w3.org/2000/svg" width="18.313" height="15.232" viewBox="0 0 18.313 15.232">
  <path id="twitter" d="M18.02,36.263a7.25,7.25,0,0,1-1.263.426A3.937,3.937,0,0,0,17.8,35.034h0a.206.206,0,0,0-.3-.241h0a7.285,7.285,0,0,1-1.93.8.491.491,0,0,1-.121.015.512.512,0,0,1-.338-.129,3.948,3.948,0,0,0-2.612-.986,4.221,4.221,0,0,0-1.251.193,3.824,3.824,0,0,0-2.577,2.756,4.212,4.212,0,0,0-.092,1.454A.141.141,0,0,1,8.539,39a.146.146,0,0,1-.109.049H8.414a10.351,10.351,0,0,1-7.115-3.8h0a.206.206,0,0,0-.339.027h0a3.953,3.953,0,0,0,.641,4.8,3.538,3.538,0,0,1-.9-.349h0a.206.206,0,0,0-.307.178h0A3.953,3.953,0,0,0,2.7,43.547H2.618a3.553,3.553,0,0,1-.665-.063h0a.206.206,0,0,0-.235.266h0A3.956,3.956,0,0,0,4.842,46.44,7.285,7.285,0,0,1,.762,47.683H.3a.3.3,0,0,0-.3.228.313.313,0,0,0,.149.345A10.836,10.836,0,0,0,5.6,49.721a10.987,10.987,0,0,0,4.652-.986,10.275,10.275,0,0,0,3.4-2.551,11.185,11.185,0,0,0,2.089-3.491,11.029,11.029,0,0,0,.709-3.822v-.06a.672.672,0,0,1,.252-.523,7.8,7.8,0,0,0,1.569-1.723h0a.206.206,0,0,0-.255-.3Z" transform="translate(0 -34.49)" fill="#acacac"/>
</svg>
