<svg xmlns="http://www.w3.org/2000/svg" xmlns:xlink="http://www.w3.org/1999/xlink" width="150.001" height="88.973" viewBox="0 0 150.001 88.973">
  <defs>
    <linearGradient id="linear-gradient" x1="-9.175" y1="8.351" x2="-8.474" y2="8.351" gradientUnits="objectBoundingBox">
      <stop offset="0" stop-color="#8ac43f"/>
      <stop offset="1" stop-color="#d7de21"/>
    </linearGradient>
    <linearGradient id="linear-gradient-2" x1="-12.237" y1="17.919" x2="-11.667" y2="14.981" gradientUnits="objectBoundingBox">
      <stop offset="0" stop-color="#006837"/>
      <stop offset="0.284" stop-color="#4ab248"/>
      <stop offset="0.461" stop-color="#42b148"/>
      <stop offset="0.816" stop-color="#b6c948"/>
      <stop offset="1" stop-color="#afc147"/>
    </linearGradient>
    <linearGradient id="linear-gradient-3" x1="1.117" y1="4.501" x2="1.833" y2="4.501" xlink:href="#linear-gradient"/>
    <linearGradient id="linear-gradient-4" x1="1.754" y1="5.587" x2="2.333" y2="3.088" gradientUnits="objectBoundingBox">
      <stop offset="0" stop-color="#b5b237"/>
      <stop offset="0.284" stop-color="#4ab248"/>
      <stop offset="0.461" stop-color="#42b148"/>
      <stop offset="0.816" stop-color="#b6c948"/>
      <stop offset="1" stop-color="#afc147"/>
    </linearGradient>
    <linearGradient id="linear-gradient-5" x1="-10.349" y1="1.144" x2="-11.349" y2="1.144" gradientUnits="objectBoundingBox">
      <stop offset="0" stop-color="#483878"/>
      <stop offset="1" stop-color="#a189a6"/>
    </linearGradient>
    <linearGradient id="linear-gradient-6" x1="0.3" y1="0.394" x2="0.835" y2="0.654" gradientUnits="objectBoundingBox">
      <stop offset="0.145" stop-color="#460000"/>
      <stop offset="0.559" stop-color="#ffac48"/>
      <stop offset="0.816" stop-color="#b6c948"/>
      <stop offset="1" stop-color="#afc147"/>
    </linearGradient>
    <linearGradient id="linear-gradient-7" x1="0.029" y1="0.505" x2="0.835" y2="1.568" gradientUnits="objectBoundingBox">
      <stop offset="0.537" stop-color="#ffc43f"/>
      <stop offset="1" stop-color="#dda040"/>
    </linearGradient>
    <linearGradient id="linear-gradient-8" x1="-2.801" y1="-1.653" x2="-2.821" y2="-1.119" gradientUnits="objectBoundingBox">
      <stop offset="0" stop-color="#ffc43f"/>
      <stop offset="1" stop-color="#dda040"/>
    </linearGradient>
    <linearGradient id="linear-gradient-9" x1="-1.879" y1="-1.224" x2="-1.9" y2="-0.691" xlink:href="#linear-gradient-8"/>
    <linearGradient id="linear-gradient-10" x1="-5.686" y1="-2.88" x2="-5.707" y2="-2.347" xlink:href="#linear-gradient-8"/>
    <linearGradient id="linear-gradient-11" x1="-0.522" y1="-0.406" x2="0.397" y2="-0.406" gradientUnits="objectBoundingBox">
      <stop offset="0" stop-color="#e17832"/>
      <stop offset="1" stop-color="#ffc147"/>
    </linearGradient>
    <linearGradient id="linear-gradient-12" x1="-0.567" y1="-0.479" x2="0.356" y2="-0.479" gradientUnits="objectBoundingBox">
      <stop offset="0" stop-color="#e1ba89"/>
      <stop offset="1" stop-color="#ffe3a0"/>
    </linearGradient>
    <linearGradient id="linear-gradient-13" x1="-1.969" y1="-2.589" x2="-2.888" y2="-2.589" xlink:href="#linear-gradient-11"/>
    <linearGradient id="linear-gradient-14" x1="-1.604" y1="-2.109" x2="-2.938" y2="-2.13" xlink:href="#linear-gradient-11"/>
    <linearGradient id="linear-gradient-15" x1="-0.104" y1="-2.056" x2="-1.159" y2="-2.056" xlink:href="#linear-gradient-11"/>
    <linearGradient id="linear-gradient-16" x1="-0.159" y1="-3.612" x2="-1.173" y2="-3.612" xlink:href="#linear-gradient-11"/>
    <linearGradient id="linear-gradient-17" x1="-0.498" y1="-2.505" x2="-1.435" y2="-2.51" xlink:href="#linear-gradient-11"/>
    <linearGradient id="linear-gradient-18" x1="-4.432" y1="-2.36" x2="-4.452" y2="-1.826" xlink:href="#linear-gradient-8"/>
  </defs>
  <g id="varieties-illustration" transform="translate(-8364.325 -687.454)">
    <path id="Path_110" data-name="Path 110" d="M8522.756,753.418v.005a18.893,18.893,0,0,1-18.227,14.34H8392.242a9.316,9.316,0,0,1-9.085-10.795c1.025-6.867,2.047-42.156,8.353-43.8,11.6-3.019,7.67,12.274,16.26,8.232s9.778-24.39,20.332-24.281,11.193,7.493,30.167-6.957c8.879-6.758,13.7.179,17.246,9.246,4.164,10.646,6.579,24.236,11.764,21.992,9.6-4.151,10.168,11.018,20.908,15.388,4.9,1.991,13.555,1.465,14.961,9.32a12.993,12.993,0,0,1,.181,1.639A19.252,19.252,0,0,1,8522.756,753.418Z" transform="translate(-9.023 0)" fill="#dfdfdf"/>
    <path id="Path_111" data-name="Path 111" d="M8553.235,720.147c-.094,1.757-.592,14.131-1.229,25.931-.135,2.5-.271,4.967-.414,7.3v0c-.821,8.723-10.01,14.33-19.347,14.33h-67.855a9.314,9.314,0,0,1-5.746-10.013c1.089-6.862,2.172-42.126,8.865-43.768,12.311-3.022,8.139,12.266,17.258,8.227,7.579-3.359,9.729-17.987,16.684-22.75a8.222,8.222,0,0,1,4.9-1.513c11.2.109,11.88,7.487,32.019-6.957C8554.368,679.465,8553.411,716.8,8553.235,720.147Z" transform="translate(-51.278 -0.628)" fill="#efefef"/>
    <path id="Path_112" data-name="Path 112" d="M8421.36,829.792s-5.025-6.586-11.472-7.514-14.824-.991-16.453-1.392c0,0,5.106,1.284,6.19,1.446a26.771,26.771,0,0,0-9.222.419c-4.639,1.126-9.515,2-11.615,1.964,0,0,2.442.405,3.643.494,0,0-13.69,2.881-18.106,2.215,0,0,8.773,1.367,13.48,3.221a42.7,42.7,0,0,1,7.4,3.652,11.033,11.033,0,0,0-3.449-.133s5.5.839,8.338,2.354,5.943,3.324,7.933,2.893a6.478,6.478,0,0,0-2.127,1.14c-.62.651-2.764.86-2.764.86a18.973,18.973,0,0,0,7.991-1.221c4.383-1.635,6.2.359,11.581-1.871S8423.7,832.079,8421.36,829.792Z" transform="translate(0 -67.788)" fill="url(#linear-gradient)"/>
    <path id="Path_113" data-name="Path 113" d="M8433.021,832.055s-1.892.39-5.98-.756-12.593-5.562-12.593-5.562,7.027,5.051,8.4,5.533-7.193-.319-11.172-1.894a22.37,22.37,0,0,0-7.44-1.571s5.946,1.608,7.664,3.212a80.421,80.421,0,0,1-17.955.033s10.911,1.692,14.966,1.639,7.791-.106,8.961.209c0,0-7.332.424-10.206,2.542,0,0,9.1-2.135,12.639-1.716a14.628,14.628,0,0,0,4.759.08s-5.009,1.227-7.116,3.777c0,0,4.9-2.873,8.9-3.15s8.976-.724,8.976-.724S8438.533,832.392,8433.021,832.055Z" transform="translate(-14.273 -70.126)" fill="url(#linear-gradient-2)"/>
    <path id="Path_114" data-name="Path 114" d="M8539.26,741.33s4.013,8.147,10.268,10.031,14.556,3.033,16.112,3.7c0,0-4.875-2.119-5.926-2.441a23.371,23.371,0,0,0,9.206.707c4.767-.687,9.731-1.06,11.809-.745,0,0-2.362-.775-3.538-1.031,0,0,14-1.522,18.283-.2,0,0-8.5-2.684-12.895-5.4a40.979,40.979,0,0,1-6.8-5.11,9.643,9.643,0,0,0,3.4.595s-5.329-1.662-7.923-3.752-5.4-4.549-7.438-4.313a6.226,6.226,0,0,0,2.277-1.025c.71-.662,2.867-.625,2.867-.625a16.7,16.7,0,0,0-8.105.365c-4.587,1.3-6.1-1.206-11.761.643S8537.281,738.425,8539.26,741.33Z" transform="translate(-85.999 -25.331)" fill="url(#linear-gradient-3)"/>
    <path id="Path_115" data-name="Path 115" d="M8540.686,743.69s1.932-.2,5.818,1.629,11.668,7.952,11.668,7.952-6.225-6.656-7.514-7.38,7.087,1.287,10.8,3.593a19.826,19.826,0,0,0,7.146,2.745s-5.66-2.595-7.127-4.643a70.126,70.126,0,0,1,17.811,2.269s-10.57-3.329-14.6-3.789-7.742-.881-8.855-1.39c0,0,7.334.459,10.5-1.584,0,0-9.343,1.262-12.788.331s-4.707-.7-4.707-.7,5.147-.753,7.614-3.387c0,0-5.281,2.644-9.286,2.444s-9.008-.328-9.008-.328S8535.268,742.6,8540.686,743.69Z" transform="translate(-84.024 -29.194)" fill="url(#linear-gradient-4)"/>
    <ellipse id="Ellipse_50" data-name="Ellipse 50" cx="34.356" cy="5.23" rx="34.356" ry="5.23" transform="translate(8423.373 765.967)" fill="url(#linear-gradient-5)"/>
    <path id="Path_123" data-name="Path 123" d="M8531.987,742.6s8.906-12.137,9.407-13.959c.184-.666-.447.091-1.012-.552a.934.934,0,0,0-1.24-.188c-.49.326-1.031,1.568-1.24,1.848a133.415,133.415,0,0,0-7.35,11.952Z" transform="translate(-83.597 -21.357)" fill="url(#linear-gradient-6)"/>
    <path id="Path_124" data-name="Path 124" d="M8453.344,804.664s-23.514-23.3-27.279-30.94l.473-.348s16.82,20.732,28.324,29.9S8453.344,804.664,8453.344,804.664Z" transform="translate(-32.29 -44.893)" fill="url(#linear-gradient-7)"/>
    <path id="Path_125" data-name="Path 125" d="M8465.562,798.025s2.8-4.648,2.453-9.269-2.009-6.615-1.646-9.682.73-5.762.73-5.762-1.775,7.705-3.543,11.153-2.685,7.324-1.682,9.9S8464.941,796.616,8465.562,798.025Z" transform="translate(-48.792 -43.665)" fill="url(#linear-gradient-8)"/>
    <path id="Path_126" data-name="Path 126" d="M8437.15,774.914a11.006,11.006,0,0,0,1.085-5.693c-.4-2.771-1.491-3.9-1.4-5.768s.2-3.505.2-3.505a40.562,40.562,0,0,1-1.664,6.876c-.919,2.154-1.307,4.53-.593,6.04S8436.717,774.091,8437.15,774.914Z" transform="translate(-35.175 -36.625)" fill="url(#linear-gradient-9)"/>
    <path id="Path_127" data-name="Path 127" d="M8431.056,768.772a9.471,9.471,0,0,0,1.238-4.832c-.2-2.4-1.072-3.433-.9-5.03s.356-3,.356-3a34.936,34.936,0,0,1-1.8,5.816c-.906,1.8-1.367,3.821-.834,5.157S8430.728,768.042,8431.056,768.772Z" transform="translate(-32.407 -34.543)" fill="url(#linear-gradient-10)"/>
    <path id="Path_128" data-name="Path 128" d="M8418.6,778.631a9.469,9.469,0,0,0-4.855-1.142c-2.4.246-3.411,1.14-5.012,1s-3.007-.3-3.007-.3a34.943,34.943,0,0,1,5.851,1.682c1.818.87,3.848,1.291,5.172.732S8417.871,778.974,8418.6,778.631Z" transform="translate(-19.949 -45.2)" fill="#dda040"/>
    <path id="Path_129" data-name="Path 129" d="M8420.923,783.558a10.561,10.561,0,0,0-5.415-1.274c-2.675.275-3.8,1.271-5.59,1.11s-3.354-.332-3.354-.332a38.945,38.945,0,0,1,6.525,1.876c2.028.97,4.291,1.44,5.769.817S8420.115,783.94,8420.923,783.558Z" transform="translate(-20.355 -47.614)" fill="#dda040"/>
    <path id="Path_130" data-name="Path 130" d="M8425.786,788.759a10.559,10.559,0,0,0-5.415-1.274c-2.674.274-3.8,1.271-5.59,1.11s-3.354-.332-3.354-.332a38.913,38.913,0,0,1,6.526,1.876c2.028.97,4.291,1.44,5.769.817S8424.98,789.141,8425.786,788.759Z" transform="translate(-23.713 -50.227)" fill="#dda040"/>
    <path id="Path_131" data-name="Path 131" d="M8431.07,794.815a10.556,10.556,0,0,0-5.415-1.274c-2.675.275-3.8,1.271-5.59,1.11s-3.354-.332-3.354-.332a38.961,38.961,0,0,1,6.526,1.877c2.028.97,4.29,1.44,5.769.817S8430.264,795.2,8431.07,794.815Z" transform="translate(-26.373 -53.268)" fill="#dda040"/>
    <path id="Path_132" data-name="Path 132" d="M8418.071,763.677a11.509,11.509,0,0,0-2.912-5.827c-2.314-2.143-4.146-2.333-5.356-4.043s-2.247-3.236-2.247-3.236a42.458,42.458,0,0,1,3.18,7.3c.611,2.583,1.889,4.966,3.625,5.767S8417.083,763.273,8418.071,763.677Z" transform="translate(-20.833 -31.858)" fill="#dda040"/>
    <path id="Path_116" data-name="Path 116" d="M8500.318,754.687a18.267,18.267,0,0,0-1.774,1.68c-8.2,8.727-24.407,36.615-29.415,45.36-.633,1.109-1.086,1.908-1.317,2.326a33.321,33.321,0,0,0,13.322,5.128c16.519,2.631,31.717-6.578,34.411-23.494C8517.6,772.815,8510.906,760.838,8500.318,754.687Z" transform="translate(-52.795 -35.887)" fill="url(#linear-gradient-11)"/>
    <path id="Path_117" data-name="Path 117" d="M8482.771,808.156a31.426,31.426,0,0,1-12.417-4.867c5.008-8.745,21.211-36.633,29.416-45.36,10.184,5.223,16.828,15.61,15.411,27.886C8513.341,801.747,8498.569,810.928,8482.771,808.156Z" transform="translate(-54.008 -37.449)" fill="url(#linear-gradient-12)"/>
    <path id="Path_118" data-name="Path 118" d="M8477.357,821.82s.479,2.642,2.8,3.216,4.134,1.548,6.231,1.478,3.318-3.878,3.3-7,.677-16.409.636-17.032-1.127-1.849-2.777,1.33S8476.369,820.807,8477.357,821.82Z" transform="translate(-57.845 -57.552)" fill="url(#linear-gradient-13)"/>
    <path id="Path_119" data-name="Path 119" d="M8503.453,825.321s-.205,2.446,3.493,2.713a11.076,11.076,0,0,0,7.091-1.918c1.02-.641.516-2.828-.135-4.389s-10.135-16.941-10.33-17.729-.6.656-.178,3.015S8503.453,825.321,8503.453,825.321Z" transform="translate(-69.857 -59.546)" fill="url(#linear-gradient-14)"/>
    <path id="Path_120" data-name="Path 120" d="M8517.6,822.231c1.05.284,4.669.813,6.879-1.653s3.92-6.62,3.81-7.825,0-2.515-5.537-4.143-17.766-5.751-17.766-5.751-.174.215.336,1.111S8516.889,822.038,8517.6,822.231Z" transform="translate(-71.002 -59.101)" fill="url(#linear-gradient-15)"/>
    <path id="Path_121" data-name="Path 121" d="M8528.8,803.144c.52-.061,1.811-.83,2.095-3.394.177-1.6-.957-5.056-1.839-7.323-.528-1.361-2.812-1.87-3.582-1.934-1.546-.128-12.48,2.307-15.554,3.276s-8.464,1.851,4.6,5.422S8526.551,803.407,8528.8,803.144Z" transform="translate(-71.646 -52.987)" fill="url(#linear-gradient-16)"/>
    <path id="Path_122" data-name="Path 122" d="M8504.85,780.865s18.442-4.758,19.523-5.505.125-4.875-1.846-7.518-1.754-2.05-3.641-2.879-3.408-1.1-4.684.993S8503.418,781.237,8504.85,780.865Z" transform="translate(-70.798 -39.884)" fill="url(#linear-gradient-17)"/>
    <path id="Path_133" data-name="Path 133" d="M8456.413,792.183s2.394-3.762,2.2-7.566-1.516-5.476-1.154-7.99.717-4.719.717-4.719-1.615,6.295-3.139,9.092-2.355,5.963-1.583,8.1S8455.933,791.012,8456.413,792.183Z" transform="translate(-44.611 -42.812)" fill="url(#linear-gradient-18)"/>
    <path id="Path_134" data-name="Path 134" d="M8449.178,786.7a12.361,12.361,0,0,1-1.146-5.919c.335-2.889,1.354-4.076,1.234-6.017s-.254-3.648-.254-3.648a45.641,45.641,0,0,0,1.722,7.145c.921,2.236,1.337,4.706.682,6.284S8449.576,785.839,8449.178,786.7Z" transform="translate(-41.99 -42.283)" fill="#dda040"/>
    <path id="Path_135" data-name="Path 135" d="M8443.723,781.28a12.37,12.37,0,0,1-1.4-5.863c.209-2.9,1.177-4.132.972-6.066s-.412-3.633-.412-3.633a45.642,45.642,0,0,0,2.031,7.064c1.017,2.193,1.539,4.643.953,6.248S8444.085,780.4,8443.723,781.28Z" transform="translate(-39.139 -39.554)" fill="#dda040"/>
    <path id="Path_136" data-name="Path 136" d="M8436.718,802.1a12.367,12.367,0,0,1-6,.595c-2.847-.6-3.934-1.725-5.878-1.785s-3.656-.084-3.656-.084a45.634,45.634,0,0,0,7.273-1.054c2.311-.71,4.809-.9,6.32-.1S8435.9,801.622,8436.718,802.1Z" transform="translate(-28.635 -56.1)" fill="#dda040"/>
    <path id="Path_137" data-name="Path 137" d="M8441.194,809.609a14.3,14.3,0,0,1-6.8,1.557c-3.352-.273-4.765-1.405-7-1.19s-4.207.436-4.207.436a52.753,52.753,0,0,0,8.191-2.27c2.548-1.152,5.387-1.731,7.237-1.035S8440.184,809.181,8441.194,809.609Z" transform="translate(-29.666 -59.964)" fill="#dda040"/>
    <path id="Path_138" data-name="Path 138" d="M8447.109,816.894a16.057,16.057,0,0,1-7.66,1.62c-3.76-.37-5.324-1.668-7.843-1.469s-4.731.41-4.731.41a59.266,59.266,0,0,0,9.241-2.394c2.882-1.246,6.081-1.841,8.145-1.025S8445.983,816.395,8447.109,816.894Z" transform="translate(-31.547 -63.424)" fill="#dda040"/>
  </g>
</svg>
