<svg xmlns="http://www.w3.org/2000/svg" xmlns:xlink="http://www.w3.org/1999/xlink" width="149.999" height="97.93" viewBox="0 0 149.999 97.93">
  <defs>
    <linearGradient id="linear-gradient" x1="0.5" y1="1" x2="0.5" gradientUnits="objectBoundingBox">
      <stop offset="0" stop-color="#393075"/>
      <stop offset="1" stop-color="#f59494"/>
    </linearGradient>
    <linearGradient id="linear-gradient-2" x1="12.953" y1="5.884" x2="12.953" y2="4.861" gradientUnits="objectBoundingBox">
      <stop offset="0" stop-color="#3930b6"/>
      <stop offset="1" stop-color="#3737b9"/>
      <stop offset="1" stop-color="aqua"/>
    </linearGradient>
    <linearGradient id="linear-gradient-3" x1="-0.237" y1="0.491" x2="-0.237" y2="-0.502" gradientUnits="objectBoundingBox">
      <stop offset="0" stop-color="#3930b6"/>
      <stop offset="1" stop-color="aqua"/>
    </linearGradient>
    <linearGradient id="linear-gradient-4" x1="0.609" y1="-5.906" x2="1.31" y2="-5.906" gradientUnits="objectBoundingBox">
      <stop offset="0" stop-color="#8ac43f"/>
      <stop offset="1" stop-color="#d7de21"/>
    </linearGradient>
    <linearGradient id="linear-gradient-6" x1="0.534" y1="-14.236" x2="1.104" y2="-16.852" gradientUnits="objectBoundingBox">
      <stop offset="0" stop-color="#b5b237"/>
      <stop offset="0.284" stop-color="#4ab248"/>
      <stop offset="0.461" stop-color="#42b148"/>
      <stop offset="0.816" stop-color="#b6c948"/>
      <stop offset="1" stop-color="#afc147"/>
    </linearGradient>
    <linearGradient id="linear-gradient-8" x1="0" y1="0.5" x2="1" y2="0.5" xlink:href="#linear-gradient-3"/>
  </defs>
  <g id="whyourbeer-illustrations" transform="translate(-8738.191 -666.583)">
    <path id="Path_146" data-name="Path 146" d="M8793.221,768.163s45.117,1.015,68.33-1.7c24-2.809,32.96-16.563,22.026-25.637s-35.591-20.054-30.367-36.3-17.007-10.889-32.556-23.593-21.621-14.247-42.758-2.722-34.863,16.7-27.94,33.393-6.072,19.872-10.688,34.482S8743.492,767.269,8793.221,768.163Z" transform="translate(0 -3.835)" fill="url(#linear-gradient)"/>
    <path id="Path_147" data-name="Path 147" d="M8807.435,816.011c1.616,4.82-4.619,7.183-8.065,8.338s-10.238-.277-11.854-5.1,2.557-11.2,6-12.359S8805.819,811.191,8807.435,816.011Z" transform="translate(-22.566 -67.736)" fill="url(#linear-gradient-2)"/>
    <path id="Path_148" data-name="Path 148" d="M8840.231,804.4c-.395,6.13-10.932,5.767-16.671,5.4s-14.912-5.214-14.518-11.345,10.2-11.224,15.943-10.855S8840.625,798.274,8840.231,804.4Z" transform="translate(-33.805 -59.253)" fill="url(#linear-gradient-3)"/>
    <path id="Path_149" data-name="Path 149" d="M.554,13.1s4.747,6.135,10.3,6.647,12.7.06,14.113.352c0,0-4.44-.943-5.375-1.034a19.95,19.95,0,0,0,7.824-.976c3.873-1.387,7.965-2.544,9.757-2.634,0,0-2.108-.246-3.137-.26,0,0,11.459-3.659,15.269-3.278,0,0-7.571-.8-11.71-2.324a34.952,34.952,0,0,1-6.561-3.118A8.225,8.225,0,0,0,33.985,6.4s-4.743-.484-7.27-1.791-5.3-2.887-6.96-2.342a5.332,5.332,0,0,0,1.731-1.246C21.969.341,23.779,0,23.779,0A14.255,14.255,0,0,0,17.06,1.69c-3.619,1.869-5.308.03-9.734,2.542S-1.595,11.009.554,13.1Z" transform="matrix(0.914, -0.407, 0.407, 0.914, 8826.032, 716.123)" fill="url(#linear-gradient-4)"/>
    <path id="Path_153" data-name="Path 153" d="M8865.337,834.415s4.747,6.135,10.3,6.647,12.7.06,14.113.352c0,0-4.44-.943-5.375-1.034a19.95,19.95,0,0,0,7.824-.976c3.873-1.387,7.965-2.544,9.757-2.634,0,0-2.108-.246-3.137-.26,0,0,11.459-3.659,15.269-3.278,0,0-7.571-.8-11.71-2.324a34.952,34.952,0,0,1-6.561-3.118,8.225,8.225,0,0,0,2.947-.082s-4.743-.484-7.27-1.791-5.3-2.887-6.96-2.342a5.332,5.332,0,0,0,1.731-1.246c.481-.675,2.292-1.011,2.292-1.011a14.255,14.255,0,0,0-6.72,1.685c-3.619,1.869-5.308.03-9.734,2.542S8863.188,832.32,8865.337,834.415Z" transform="translate(-31.802 -79.468)" fill="url(#linear-gradient-4)"/>
    <path id="Path_150" data-name="Path 150" d="M3.021,6.333s1.584-.5,5.148.372,11.119,4.668,11.119,4.668-6.343-4.51-7.546-4.9,6.15-.13,9.651,1.167a16.933,16.933,0,0,0,6.448,1.081s-5.179-1.208-6.756-2.672A59.893,59.893,0,0,1,36.381,4.917s-9.415-.986-12.864-.685-6.63.582-7.648.346c0,0,6.215-.865,8.515-3.113,0,0-7.6,2.647-10.646,2.455a10.923,10.923,0,0,0-4.061.213S13.858,2.625,15.474,0c0,0-3.971,3.112-7.355,3.627s-7.6,1.26-7.6,1.26S-1.7,6.341,3.021,6.333Z" transform="matrix(0.914, -0.407, 0.407, 0.914, 8827.329, 722.722)" fill="url(#linear-gradient-6)"/>
    <path id="Path_152" data-name="Path 152" d="M8866.424,841.809s1.584-.5,5.148.372,11.119,4.668,11.119,4.668-6.343-4.51-7.546-4.9,6.15-.13,9.651,1.167a16.933,16.933,0,0,0,6.448,1.081s-5.179-1.208-6.756-2.672a59.893,59.893,0,0,1,15.295-1.134s-9.415-.986-12.864-.685-6.63.582-7.648.346c0,0,6.215-.865,8.515-3.113,0,0-7.6,2.647-10.646,2.455a10.923,10.923,0,0,0-4.061.213s4.182-1.507,5.8-4.132c0,0-3.971,3.112-7.355,3.627s-7.6,1.26-7.6,1.26S8861.705,841.817,8866.424,841.809Z" transform="translate(-32.184 -86.982)" fill="url(#linear-gradient-6)"/>
    <g id="Group_19" data-name="Group 19" transform="translate(8755.581 670.243)">
      <path id="Path_151" data-name="Path 151" d="M8812.54,714.457h-9.485a3.377,3.377,0,0,1-3.367-3.1l-.879-10.527a3.382,3.382,0,0,1,3.773-3.632,24.263,24.263,0,0,0,2.735.148q6.186,0,9.285-3.095a10.188,10.188,0,0,0,3.094-7.474,9.756,9.756,0,0,0-2.687-7.124,9.559,9.559,0,0,0-7.24-2.8,10.658,10.658,0,0,0-6.6,2.16,7.4,7.4,0,0,0-2.682,4.712,3.382,3.382,0,0,1-3.317,2.762H8778.61a3.386,3.386,0,0,1-3.307-4.1,20.179,20.179,0,0,1,9.752-13.419q9.633-5.781,24.465-5.781,17.752,0,26.452,6.715,8.7,6.774,8.7,16.642,0,10.8-8.234,16.759a32.525,32.525,0,0,1-17.527,5.886,3.361,3.361,0,0,0-3.075,2.629h0A3.382,3.382,0,0,1,8812.54,714.457Z" transform="translate(-8779.227 -659.189)" fill="url(#linear-gradient-8)"/>
    </g>
  </g>
</svg>
